# WaveFront *.obj file (generated by Autodesk ATF)

mtllib assembly_band.mtl

g Solid1

v -0.155000 -1.140000 0.010000
v -1.825000 -1.140000 0.010000
v -0.155000 -1.140000 -0.040000
v -1.825000 -1.140000 -0.040000
v -0.155000 -1.140000 -0.045000
v -1.825000 -1.140000 -0.045000
v -0.110129 -1.135581 0.010000
v -1.869871 -1.135581 0.010000
v -0.110129 -1.135581 -0.045000
v -1.869871 -1.135581 -0.045000
v -0.066983 -1.122492 0.010000
v -1.913017 -1.122492 0.010000
v -0.066983 -1.122492 -0.045000
v -1.913017 -1.122492 -0.045000
v -0.027219 -1.101238 0.010000
v -1.952781 -1.101238 0.010000
v -0.027219 -1.101238 -0.045000
v -1.952781 -1.101238 -0.045000
v 0.007635 -1.072635 0.010000
v -1.987635 -1.072635 0.010000
v 0.007635 -1.072635 -0.045000
v -1.987635 -1.072635 -0.045000
v -0.155000 -1.065000 0.010000
v -1.825000 -1.065000 0.010000
v -0.155000 -1.065000 -0.040000
v -1.825000 -1.065000 -0.040000
v -0.155000 -1.065000 -0.045000
v -1.825000 -1.065000 -0.045000
v -0.120509 -1.061114 0.010000
v -1.859491 -1.061114 0.010000
v -0.120509 -1.061114 -0.045000
v -1.859491 -1.061114 -0.045000
v -0.087748 -1.049650 0.010000
v -1.892252 -1.049650 0.010000
v -0.087748 -1.049650 -0.045000
v -1.892252 -1.049650 -0.045000
v 0.036238 -1.037781 0.010000
v -2.016238 -1.037781 0.010000
v 0.036238 -1.037781 -0.045000
v -2.016238 -1.037781 -0.045000
v -0.058359 -1.031184 0.010000
v -1.921641 -1.031184 0.010000
v -0.058359 -1.031184 -0.045000
v -1.921641 -1.031184 -0.045000
v -0.033816 -1.006641 0.010000
v -1.946184 -1.006641 0.010000
v -0.033816 -1.006641 -0.045000
v -1.946184 -1.006641 -0.045000
v 0.057492 -0.998017 0.010000
v -2.037492 -0.998017 0.010000
v 0.057492 -0.998017 -0.045000
v -2.037492 -0.998017 -0.045000
v -0.015350 -0.977252 0.010000
v -1.964650 -0.977252 0.010000
v -0.015350 -0.977252 -0.045000
v -1.964650 -0.977252 -0.045000
v 0.070581 -0.954871 0.010000
v -2.050581 -0.954871 0.010000
v 0.070581 -0.954871 -0.045000
v -2.050581 -0.954871 -0.045000
v -0.003886 -0.944491 0.010000
v -1.976114 -0.944491 0.010000
v -0.003886 -0.944491 -0.045000
v -1.976114 -0.944491 -0.045000
v 0.075000 -0.910000 0.010000
v 0.000000 -0.910000 0.010000
v -1.980000 -0.910000 0.010000
v -2.055000 -0.910000 0.010000
v 0.075000 -0.910000 -0.040000
v 0.000000 -0.910000 -0.040000
v -1.980000 -0.910000 -0.040000
v -2.055000 -0.910000 -0.040000
v 0.075000 -0.910000 -0.045000
v 0.000000 -0.910000 -0.045000
v -1.980000 -0.910000 -0.045000
v -2.055000 -0.910000 -0.045000
v 0.075000 -0.155000 0.010000
v 0.000000 -0.155000 0.010000
v -1.980000 -0.155000 0.010000
v -2.055000 -0.155000 0.010000
v 0.075000 -0.155000 -0.040000
v 0.000000 -0.155000 -0.040000
v -1.980000 -0.155000 -0.040000
v -2.055000 -0.155000 -0.040000
v 0.075000 -0.155000 -0.045000
v 0.000000 -0.155000 -0.045000
v -1.980000 -0.155000 -0.045000
v -2.055000 -0.155000 -0.045000
v -0.003886 -0.120509 0.010000
v -1.976114 -0.120509 0.010000
v -0.003886 -0.120509 -0.045000
v -1.976114 -0.120509 -0.045000
v 0.070581 -0.110129 0.010000
v -2.050581 -0.110129 0.010000
v 0.070581 -0.110129 -0.045000
v -2.050581 -0.110129 -0.045000
v -0.015350 -0.087748 0.010000
v -1.964650 -0.087748 0.010000
v -0.015350 -0.087748 -0.045000
v -1.964650 -0.087748 -0.045000
v 0.057492 -0.066983 0.010000
v -2.037492 -0.066983 0.010000
v 0.057492 -0.066983 -0.045000
v -2.037492 -0.066983 -0.045000
v -0.033816 -0.058359 0.010000
v -1.946184 -0.058359 0.010000
v -0.033816 -0.058359 -0.045000
v -1.946184 -0.058359 -0.045000
v -0.058359 -0.033816 0.010000
v -1.921641 -0.033816 0.010000
v -0.058359 -0.033816 -0.045000
v -1.921641 -0.033816 -0.045000
v 0.036238 -0.027219 0.010000
v -2.016238 -0.027219 0.010000
v 0.036238 -0.027219 -0.045000
v -2.016238 -0.027219 -0.045000
v -0.087748 -0.015350 0.010000
v -1.892252 -0.015350 0.010000
v -0.087748 -0.015350 -0.045000
v -1.892252 -0.015350 -0.045000
v -0.120509 -0.003886 0.010000
v -1.859491 -0.003886 0.010000
v -0.120509 -0.003886 -0.045000
v -1.859491 -0.003886 -0.045000
v -0.155000 0.000000 0.010000
v -1.825000 0.000000 0.010000
v -0.155000 0.000000 -0.040000
v -1.825000 0.000000 -0.040000
v -0.155000 0.000000 -0.045000
v -1.825000 0.000000 -0.045000
v 0.007635 0.007635 0.010000
v -1.987635 0.007635 0.010000
v 0.007635 0.007635 -0.045000
v -1.987635 0.007635 -0.045000
v -0.027219 0.036238 0.010000
v -1.952781 0.036238 0.010000
v -0.027219 0.036238 -0.045000
v -1.952781 0.036238 -0.045000
v -0.066983 0.057492 0.010000
v -1.913017 0.057492 0.010000
v -0.066983 0.057492 -0.045000
v -1.913017 0.057492 -0.045000
v -0.110129 0.070581 0.010000
v -1.869871 0.070581 0.010000
v -0.110129 0.070581 -0.045000
v -1.869871 0.070581 -0.045000
v -0.155000 0.075000 0.010000
v -1.825000 0.075000 0.010000
v -0.155000 0.075000 -0.040000
v -1.825000 0.075000 -0.040000
v -0.155000 0.075000 -0.045000
v -1.825000 0.075000 -0.045000
vt 0.000000 5.000000 0.000000
vt 7.500000 5.000000 0.000000
vt 7.500000 5.500000 0.000000
vt 0.000000 5.500000 0.000000
vt 0.000000 -24.347343 0.000000
vt 0.000000 -27.825535 0.000000
vt 0.000000 -31.303728 0.000000
vt 0.000000 -34.781918 0.000000
vt 0.000000 -38.260113 0.000000
vt 0.000000 -41.738300 0.000000
vt 0.000000 -45.216496 0.000000
vt 0.000000 -48.694687 0.000000
vt 5.000000 -48.694687 0.000000
vt 5.500000 -48.694687 0.000000
vt 5.500000 -45.216496 0.000000
vt 5.500000 -41.738300 0.000000
vt 5.500000 -38.260113 0.000000
vt 5.500000 -34.781918 0.000000
vt 5.500000 -31.303728 0.000000
vt 5.500000 -27.825535 0.000000
vt 5.500000 -24.347343 0.000000
vt 5.000000 -24.347343 0.000000
vt 0.000000 5.000000 0.000000
vt 7.500000 5.000000 0.000000
vt 7.500000 5.500000 0.000000
vt 0.000000 5.500000 0.000000
vt -0.000000 0.000000 0.000000
vt -0.000000 4.516039 0.000000
vt -0.000000 9.032079 0.000000
vt -0.000000 13.548119 0.000000
vt -0.000000 18.064157 0.000000
vt -0.000000 22.580196 0.000000
vt -0.000000 27.096237 0.000000
vt -0.000000 31.612276 0.000000
vt -0.000000 36.128315 0.000000
vt -5.000000 36.128315 0.000000
vt -5.500000 36.128315 0.000000
vt -5.500000 31.612276 0.000000
vt -5.500000 27.096237 0.000000
vt -5.500000 22.580196 0.000000
vt -5.500000 18.064157 0.000000
vt -5.500000 13.548119 0.000000
vt -5.500000 9.032079 0.000000
vt -5.500000 4.516039 0.000000
vt -5.500000 0.000000 0.000000
vt -5.000000 0.000000 0.000000
vt 11.500000 -11.500000 0.000000
vt 11.058062 -7.012923 0.000000
vt 9.749229 -2.698281 0.000000
vt 7.623801 1.278115 0.000000
vt 4.763456 4.763456 0.000000
vt 1.278115 7.623801 0.000000
vt -2.698281 9.749229 0.000000
vt -7.012923 11.058062 0.000000
vt -11.500000 11.500000 0.000000
vt -11.500000 4.000000 0.000000
vt -8.050925 3.611383 0.000000
vt -4.774802 2.465018 0.000000
vt -1.835908 0.618388 0.000000
vt 0.618388 -1.835908 0.000000
vt 2.465018 -4.774802 0.000000
vt 3.611383 -8.050925 0.000000
vt 4.000000 -11.500000 0.000000
vt 0.000000 5.000000 0.000000
vt 7.500000 5.000000 0.000000
vt 7.500000 5.500000 0.000000
vt 0.000000 5.500000 0.000000
vt 0.000000 -24.347343 0.000000
vt 0.000000 -27.825535 0.000000
vt 0.000000 -31.303728 0.000000
vt 0.000000 -34.781918 0.000000
vt 0.000000 -38.260113 0.000000
vt 0.000000 -41.738300 0.000000
vt 0.000000 -45.216496 0.000000
vt 0.000000 -48.694687 0.000000
vt 5.000000 -48.694687 0.000000
vt 5.500000 -48.694687 0.000000
vt 5.500000 -45.216496 0.000000
vt 5.500000 -41.738300 0.000000
vt 5.500000 -38.260113 0.000000
vt 5.500000 -34.781918 0.000000
vt 5.500000 -31.303728 0.000000
vt 5.500000 -27.825535 0.000000
vt 5.500000 -24.347343 0.000000
vt 5.000000 -24.347343 0.000000
vt 0.000000 5.000000 0.000000
vt 7.500000 5.000000 0.000000
vt 7.500000 5.500000 0.000000
vt 0.000000 5.500000 0.000000
vt -0.000000 0.000000 0.000000
vt -0.000000 4.516039 0.000000
vt -0.000000 9.032079 0.000000
vt -0.000000 13.548119 0.000000
vt -0.000000 18.064157 0.000000
vt -0.000000 22.580196 0.000000
vt -0.000000 27.096237 0.000000
vt -0.000000 31.612276 0.000000
vt -0.000000 36.128315 0.000000
vt -5.000000 36.128315 0.000000
vt -5.500000 36.128315 0.000000
vt -5.500000 31.612276 0.000000
vt -5.500000 27.096237 0.000000
vt -5.500000 22.580196 0.000000
vt -5.500000 18.064157 0.000000
vt -5.500000 13.548119 0.000000
vt -5.500000 9.032079 0.000000
vt -5.500000 4.516039 0.000000
vt -5.500000 0.000000 0.000000
vt -5.000000 0.000000 0.000000
vt 11.500000 11.500000 0.000000
vt 7.012923 11.058062 0.000000
vt 2.698281 9.749229 0.000000
vt -1.278115 7.623801 0.000000
vt -4.763456 4.763456 0.000000
vt -7.623801 1.278115 0.000000
vt -9.749229 -2.698281 0.000000
vt -11.058062 -7.012923 0.000000
vt -11.500000 -11.500000 0.000000
vt -4.000000 -11.500000 0.000000
vt -3.611383 -8.050925 0.000000
vt -2.465018 -4.774802 0.000000
vt -0.618388 -1.835908 0.000000
vt 1.835908 0.618388 0.000000
vt 4.774802 2.465018 0.000000
vt 8.050925 3.611383 0.000000
vt 11.500000 4.000000 0.000000
vt 0.000000 5.000000 0.000000
vt 7.500000 5.000000 0.000000
vt 7.500000 5.500000 0.000000
vt 0.000000 5.500000 0.000000
vt 0.000000 -24.347343 0.000000
vt 0.000000 -27.825535 0.000000
vt 0.000000 -31.303728 0.000000
vt 0.000000 -34.781918 0.000000
vt 0.000000 -38.260113 0.000000
vt 0.000000 -41.738300 0.000000
vt 0.000000 -45.216496 0.000000
vt 0.000000 -48.694687 0.000000
vt 5.000000 -48.694687 0.000000
vt 5.500000 -48.694687 0.000000
vt 5.500000 -45.216496 0.000000
vt 5.500000 -41.738300 0.000000
vt 5.500000 -38.260113 0.000000
vt 5.500000 -34.781918 0.000000
vt 5.500000 -31.303728 0.000000
vt 5.500000 -27.825535 0.000000
vt 5.500000 -24.347343 0.000000
vt 5.000000 -24.347343 0.000000
vt 0.000000 5.000000 0.000000
vt 7.500000 5.000000 0.000000
vt 7.500000 5.500000 0.000000
vt 0.000000 5.500000 0.000000
vt -0.000000 0.000000 0.000000
vt -0.000000 4.516039 0.000000
vt -0.000000 9.032079 0.000000
vt -0.000000 13.548119 0.000000
vt -0.000000 18.064157 0.000000
vt -0.000000 22.580196 0.000000
vt -0.000000 27.096237 0.000000
vt -0.000000 31.612276 0.000000
vt -0.000000 36.128315 0.000000
vt -5.000000 36.128315 0.000000
vt -5.500000 36.128315 0.000000
vt -5.500000 31.612276 0.000000
vt -5.500000 27.096237 0.000000
vt -5.500000 22.580196 0.000000
vt -5.500000 18.064157 0.000000
vt -5.500000 13.548119 0.000000
vt -5.500000 9.032079 0.000000
vt -5.500000 4.516039 0.000000
vt -5.500000 0.000000 0.000000
vt -5.000000 0.000000 0.000000
vt -11.500000 -11.500000 0.000000
vt -7.012923 -11.058062 0.000000
vt -2.698281 -9.749229 0.000000
vt 1.278115 -7.623801 0.000000
vt 4.763456 -4.763456 0.000000
vt 7.623801 -1.278115 0.000000
vt 9.749229 2.698281 0.000000
vt 11.058062 7.012923 0.000000
vt 11.500000 11.500000 0.000000
vt 4.000000 11.500000 0.000000
vt 3.611383 8.050925 0.000000
vt 2.465018 4.774802 0.000000
vt 0.618388 1.835908 0.000000
vt -1.835908 -0.618388 0.000000
vt -4.774802 -2.465018 0.000000
vt -8.050925 -3.611383 0.000000
vt -11.500000 -4.000000 0.000000
vt 0.000000 5.000000 0.000000
vt 7.500000 5.000000 0.000000
vt 7.500000 5.500000 0.000000
vt 0.000000 5.500000 0.000000
vt 0.000000 -24.347343 0.000000
vt 0.000000 -27.825535 0.000000
vt 0.000000 -31.303728 0.000000
vt 0.000000 -34.781918 0.000000
vt 0.000000 -38.260113 0.000000
vt 0.000000 -41.738300 0.000000
vt 0.000000 -45.216496 0.000000
vt 0.000000 -48.694687 0.000000
vt 5.000000 -48.694687 0.000000
vt 5.500000 -48.694687 0.000000
vt 5.500000 -45.216496 0.000000
vt 5.500000 -41.738300 0.000000
vt 5.500000 -38.260113 0.000000
vt 5.500000 -34.781918 0.000000
vt 5.500000 -31.303728 0.000000
vt 5.500000 -27.825535 0.000000
vt 5.500000 -24.347343 0.000000
vt 5.000000 -24.347343 0.000000
vt 0.000000 5.000000 0.000000
vt 7.500000 5.000000 0.000000
vt 7.500000 5.500000 0.000000
vt 0.000000 5.500000 0.000000
vt -0.000000 0.000000 0.000000
vt -0.000000 4.516039 0.000000
vt -0.000000 9.032079 0.000000
vt -0.000000 13.548119 0.000000
vt -0.000000 18.064157 0.000000
vt -0.000000 22.580196 0.000000
vt -0.000000 27.096237 0.000000
vt -0.000000 31.612276 0.000000
vt -0.000000 36.128315 0.000000
vt -5.000000 36.128315 0.000000
vt -5.500000 36.128315 0.000000
vt -5.500000 31.612276 0.000000
vt -5.500000 27.096237 0.000000
vt -5.500000 22.580196 0.000000
vt -5.500000 18.064157 0.000000
vt -5.500000 13.548119 0.000000
vt -5.500000 9.032079 0.000000
vt -5.500000 4.516039 0.000000
vt -5.500000 0.000000 0.000000
vt -5.000000 0.000000 0.000000
vt -4.000000 11.500000 0.000000
vt -11.500000 11.500000 0.000000
vt -11.058062 7.012923 0.000000
vt -9.749229 2.698281 0.000000
vt -7.623801 -1.278115 0.000000
vt -4.763456 -4.763456 0.000000
vt -1.278115 -7.623801 0.000000
vt 2.698281 -9.749229 0.000000
vt 7.012923 -11.058062 0.000000
vt 11.500000 -11.500000 0.000000
vt 11.500000 -4.000000 0.000000
vt 8.050925 -3.611383 0.000000
vt 4.774802 -2.465018 0.000000
vt 1.835908 -0.618388 0.000000
vt -0.618388 1.835908 0.000000
vt -2.465018 4.774802 0.000000
vt -3.611383 8.050925 0.000000
vt 0.000000 0.000000 0.000000
vt 167.000000 0.000000 0.000000
vt 167.000000 5.000000 0.000000
vt 0.000000 5.000000 0.000000
vt 0.000000 0.000000 0.000000
vt 167.000000 0.000000 0.000000
vt 167.000000 5.000000 0.000000
vt 0.000000 5.000000 0.000000
vt -83.500000 3.750000 0.000000
vt -83.500000 -3.750000 0.000000
vt 83.500000 -3.750000 0.000000
vt 83.500000 3.750000 0.000000
vt 0.000000 0.000000 0.000000
vt 75.500000 0.000000 0.000000
vt 75.500000 5.000000 0.000000
vt 0.000000 5.000000 0.000000
vt 0.000000 0.000000 0.000000
vt 75.500000 0.000000 0.000000
vt 75.500000 5.000000 0.000000
vt 0.000000 5.000000 0.000000
vt -3.750000 37.750000 0.000000
vt -3.750000 -37.750000 0.000000
vt 3.750000 -37.750000 0.000000
vt 3.750000 37.750000 0.000000
vt 0.000000 0.000000 0.000000
vt 75.500000 0.000000 0.000000
vt 75.500000 5.000000 0.000000
vt 0.000000 5.000000 0.000000
vt 0.000000 0.000000 0.000000
vt 75.500000 0.000000 0.000000
vt 75.500000 5.000000 0.000000
vt 0.000000 5.000000 0.000000
vt 3.750000 -37.750000 0.000000
vt 3.750000 37.750000 0.000000
vt -3.750000 37.750000 0.000000
vt -3.750000 -37.750000 0.000000
vt 0.000000 0.000000 0.000000
vt 167.000000 0.000000 0.000000
vt 167.000000 5.000000 0.000000
vt 0.000000 5.000000 0.000000
vt 0.000000 0.000000 0.000000
vt 167.000000 0.000000 0.000000
vt 167.000000 5.000000 0.000000
vt 0.000000 5.000000 0.000000
vt 83.500000 3.750000 0.000000
vt -83.500000 3.750000 0.000000
vt -83.500000 -3.750000 0.000000
vt 83.500000 -3.750000 0.000000
vt -83.500000 -3.750000 0.000000
vt 83.500000 -3.750000 0.000000
vt 86.949074 -4.138618 0.000000
vt 90.225197 -5.284983 0.000000
vt 93.164093 -7.131612 0.000000
vt 95.618385 -9.585908 0.000000
vt 97.465019 -12.524802 0.000000
vt 98.611382 -15.800925 0.000000
vt 99.000000 -19.250000 0.000000
vt 99.000000 -94.750000 0.000000
vt 98.611382 -98.199074 0.000000
vt 97.465019 -101.475197 0.000000
vt 95.618385 -104.414093 0.000000
vt 93.164093 -106.868385 0.000000
vt 90.225197 -108.715019 0.000000
vt 86.949074 -109.861382 0.000000
vt 83.500000 -110.250000 0.000000
vt -83.500000 -110.250000 0.000000
vt -86.949074 -109.861382 0.000000
vt -90.225197 -108.715019 0.000000
vt -93.164093 -106.868385 0.000000
vt -95.618385 -104.414093 0.000000
vt -97.465019 -101.475197 0.000000
vt -98.611382 -98.199074 0.000000
vt -99.000000 -94.750000 0.000000
vt -99.000000 -19.250000 0.000000
vt -98.611382 -15.800925 0.000000
vt -97.465019 -12.524802 0.000000
vt -95.618385 -9.585908 0.000000
vt -93.164093 -7.131612 0.000000
vt -90.225197 -5.284983 0.000000
vt -86.949074 -4.138618 0.000000
vt -83.500000 3.750000 0.000000
vt -87.987076 3.308061 0.000000
vt -92.301720 1.999229 0.000000
vt -96.278114 -0.126199 0.000000
vt -99.763458 -2.986544 0.000000
vt -102.623802 -6.471885 0.000000
vt -104.749229 -10.448281 0.000000
vt -106.058060 -14.762922 0.000000
vt -106.500000 -19.250000 0.000000
vt -106.500000 -94.750000 0.000000
vt -106.058060 -99.237076 0.000000
vt -104.749229 -103.551720 0.000000
vt -102.623802 -107.528114 0.000000
vt -99.763458 -111.013458 0.000000
vt -96.278114 -113.873802 0.000000
vt -92.301720 -115.999229 0.000000
vt -87.987076 -117.308060 0.000000
vt -83.500000 -117.750000 0.000000
vt 83.500000 -117.750000 0.000000
vt 87.987076 -117.308060 0.000000
vt 92.301720 -115.999229 0.000000
vt 96.278114 -113.873802 0.000000
vt 99.763458 -111.013458 0.000000
vt 102.623802 -107.528114 0.000000
vt 104.749229 -103.551720 0.000000
vt 106.058060 -99.237076 0.000000
vt 106.500000 -94.750000 0.000000
vt 106.500000 -19.250000 0.000000
vt 106.058060 -14.762922 0.000000
vt 104.749229 -10.448281 0.000000
vt 102.623802 -6.471885 0.000000
vt 99.763458 -2.986544 0.000000
vt 96.278114 -0.126199 0.000000
vt 92.301720 1.999229 0.000000
vt 87.987076 3.308061 0.000000
vt 83.500000 3.750000 0.000000
vn -0.000000 -100.000000 0.000000
vn -0.000000 -100.000000 0.000000
vn -0.000000 -100.000000 0.000000
vn -0.000000 -100.000000 0.000000
vn -0.000000 -100.000000 0.000000
vn 22.252093 -97.492790 -0.000000
vn 43.388373 -90.096885 -0.000000
vn 62.348980 -78.183150 -0.000000
vn 78.183150 -62.348980 -0.000000
vn 90.096885 -43.388373 -0.000000
vn 97.492790 -22.252093 -0.000000
vn 100.000000 -0.000000 -0.000000
vn 100.000000 -0.000000 -0.000000
vn 100.000000 -0.000000 -0.000000
vn 97.492790 -22.252093 -0.000000
vn 90.096885 -43.388373 -0.000000
vn 78.183150 -62.348980 -0.000000
vn 62.348980 -78.183150 -0.000000
vn 43.388373 -90.096885 -0.000000
vn 22.252093 -97.492790 -0.000000
vn -0.000000 -100.000000 0.000000
vn -0.000000 -100.000000 0.000000
vn 100.000000 -0.000000 -0.000000
vn 100.000000 -0.000000 -0.000000
vn 100.000000 -0.000000 -0.000000
vn 100.000000 -0.000000 -0.000000
vn -100.000000 0.000000 0.000000
vn -98.078525 19.509032 0.000000
vn -92.387950 38.268343 0.000000
vn -83.146960 55.557024 0.000000
vn -70.710677 70.710677 0.000000
vn -55.557024 83.146960 0.000000
vn -38.268343 92.387950 0.000000
vn -19.509032 98.078525 0.000000
vn 0.000000 100.000000 -0.000000
vn 0.000000 100.000000 -0.000000
vn 0.000000 100.000000 -0.000000
vn -19.509032 98.078525 0.000000
vn -38.268343 92.387950 0.000000
vn -55.557024 83.146960 0.000000
vn -70.710677 70.710677 0.000000
vn -83.146960 55.557024 0.000000
vn -92.387950 38.268343 0.000000
vn -98.078525 19.509032 0.000000
vn -100.000000 0.000000 0.000000
vn -100.000000 0.000000 0.000000
vn -0.000000 0.000000 -100.000000
vn -0.000000 0.000000 -100.000000
vn -0.000000 0.000000 -100.000000
vn -0.000000 0.000000 -100.000000
vn -0.000000 0.000000 -100.000000
vn -0.000000 0.000000 -100.000000
vn -0.000000 0.000000 -100.000000
vn -0.000000 0.000000 -100.000000
vn -0.000000 0.000000 -100.000000
vn -0.000000 0.000000 -100.000000
vn -0.000000 0.000000 -100.000000
vn -0.000000 0.000000 -100.000000
vn -0.000000 0.000000 -100.000000
vn -0.000000 0.000000 -100.000000
vn -0.000000 0.000000 -100.000000
vn -0.000000 0.000000 -100.000000
vn -0.000000 0.000000 -100.000000
vn -100.000000 0.000000 0.000000
vn -100.000000 0.000000 0.000000
vn -100.000000 0.000000 0.000000
vn -100.000000 0.000000 0.000000
vn -100.000000 0.000000 0.000000
vn -97.492790 -22.252093 0.000000
vn -90.096885 -43.388373 0.000000
vn -78.183150 -62.348980 0.000000
vn -62.348980 -78.183150 0.000000
vn -43.388373 -90.096885 0.000000
vn -22.252093 -97.492790 0.000000
vn -0.000000 -100.000000 0.000000
vn -0.000000 -100.000000 0.000000
vn -0.000000 -100.000000 0.000000
vn -22.252093 -97.492790 0.000000
vn -43.388373 -90.096885 0.000000
vn -62.348980 -78.183150 0.000000
vn -78.183150 -62.348980 0.000000
vn -90.096885 -43.388373 0.000000
vn -97.492790 -22.252093 0.000000
vn -100.000000 0.000000 0.000000
vn -100.000000 0.000000 0.000000
vn -0.000000 -100.000000 0.000000
vn -0.000000 -100.000000 0.000000
vn -0.000000 -100.000000 0.000000
vn -0.000000 -100.000000 0.000000
vn 0.000000 100.000000 -0.000000
vn 19.509032 98.078525 -0.000000
vn 38.268343 92.387950 -0.000000
vn 55.557024 83.146960 -0.000000
vn 70.710677 70.710677 -0.000000
vn 83.146960 55.557024 -0.000000
vn 92.387950 38.268343 -0.000000
vn 98.078525 19.509032 -0.000000
vn 100.000000 -0.000000 -0.000000
vn 100.000000 -0.000000 -0.000000
vn 100.000000 -0.000000 -0.000000
vn 98.078525 19.509032 -0.000000
vn 92.387950 38.268343 -0.000000
vn 83.146960 55.557024 -0.000000
vn 70.710677 70.710677 -0.000000
vn 55.557024 83.146960 -0.000000
vn 38.268343 92.387950 -0.000000
vn 19.509032 98.078525 -0.000000
vn 0.000000 100.000000 -0.000000
vn 0.000000 100.000000 -0.000000
vn -0.000000 0.000000 -100.000000
vn -0.000000 0.000000 -100.000000
vn -0.000000 0.000000 -100.000000
vn -0.000000 0.000000 -100.000000
vn -0.000000 0.000000 -100.000000
vn -0.000000 0.000000 -100.000000
vn -0.000000 0.000000 -100.000000
vn -0.000000 0.000000 -100.000000
vn -0.000000 0.000000 -100.000000
vn -0.000000 0.000000 -100.000000
vn -0.000000 0.000000 -100.000000
vn -0.000000 0.000000 -100.000000
vn -0.000000 0.000000 -100.000000
vn -0.000000 0.000000 -100.000000
vn -0.000000 0.000000 -100.000000
vn -0.000000 0.000000 -100.000000
vn -0.000000 0.000000 -100.000000
vn 100.000000 -0.000000 -0.000000
vn 100.000000 -0.000000 -0.000000
vn 100.000000 -0.000000 -0.000000
vn 100.000000 -0.000000 -0.000000
vn 100.000000 -0.000000 -0.000000
vn 97.492790 22.252093 -0.000000
vn 90.096885 43.388373 -0.000000
vn 78.183150 62.348980 -0.000000
vn 62.348980 78.183150 -0.000000
vn 43.388373 90.096885 -0.000000
vn 22.252093 97.492790 -0.000000
vn 0.000000 100.000000 -0.000000
vn 0.000000 100.000000 -0.000000
vn 0.000000 100.000000 -0.000000
vn 22.252093 97.492790 -0.000000
vn 43.388373 90.096885 -0.000000
vn 62.348980 78.183150 -0.000000
vn 78.183150 62.348980 -0.000000
vn 90.096885 43.388373 -0.000000
vn 97.492790 22.252093 -0.000000
vn 100.000000 -0.000000 -0.000000
vn 100.000000 -0.000000 -0.000000
vn 0.000000 100.000000 -0.000000
vn 0.000000 100.000000 -0.000000
vn 0.000000 100.000000 -0.000000
vn 0.000000 100.000000 -0.000000
vn -0.000000 -100.000000 0.000000
vn -19.509032 -98.078525 0.000000
vn -38.268343 -92.387950 0.000000
vn -55.557024 -83.146960 0.000000
vn -70.710677 -70.710677 0.000000
vn -83.146960 -55.557024 0.000000
vn -92.387950 -38.268343 0.000000
vn -98.078525 -19.509032 0.000000
vn -100.000000 0.000000 0.000000
vn -100.000000 0.000000 0.000000
vn -100.000000 0.000000 0.000000
vn -98.078525 -19.509032 0.000000
vn -92.387950 -38.268343 0.000000
vn -83.146960 -55.557024 0.000000
vn -70.710677 -70.710677 0.000000
vn -55.557024 -83.146960 0.000000
vn -38.268343 -92.387950 0.000000
vn -19.509032 -98.078525 0.000000
vn -0.000000 -100.000000 0.000000
vn -0.000000 -100.000000 0.000000
vn -0.000000 0.000000 -100.000000
vn -0.000000 0.000000 -100.000000
vn -0.000000 0.000000 -100.000000
vn -0.000000 0.000000 -100.000000
vn -0.000000 0.000000 -100.000000
vn -0.000000 0.000000 -100.000000
vn -0.000000 0.000000 -100.000000
vn -0.000000 0.000000 -100.000000
vn -0.000000 0.000000 -100.000000
vn -0.000000 0.000000 -100.000000
vn -0.000000 0.000000 -100.000000
vn -0.000000 0.000000 -100.000000
vn -0.000000 0.000000 -100.000000
vn -0.000000 0.000000 -100.000000
vn -0.000000 0.000000 -100.000000
vn -0.000000 0.000000 -100.000000
vn -0.000000 0.000000 -100.000000
vn 0.000000 100.000000 -0.000000
vn 0.000000 100.000000 -0.000000
vn 0.000000 100.000000 -0.000000
vn 0.000000 100.000000 -0.000000
vn 0.000000 100.000000 -0.000000
vn -22.252093 97.492790 0.000000
vn -43.388373 90.096885 0.000000
vn -62.348980 78.183150 0.000000
vn -78.183150 62.348980 0.000000
vn -90.096885 43.388373 0.000000
vn -97.492790 22.252093 0.000000
vn -100.000000 0.000000 0.000000
vn -100.000000 0.000000 0.000000
vn -100.000000 0.000000 0.000000
vn -97.492790 22.252093 0.000000
vn -90.096885 43.388373 0.000000
vn -78.183150 62.348980 0.000000
vn -62.348980 78.183150 0.000000
vn -43.388373 90.096885 0.000000
vn -22.252093 97.492790 0.000000
vn 0.000000 100.000000 -0.000000
vn 0.000000 100.000000 -0.000000
vn -100.000000 0.000000 0.000000
vn -100.000000 0.000000 0.000000
vn -100.000000 0.000000 0.000000
vn -100.000000 0.000000 0.000000
vn 100.000000 -0.000000 -0.000000
vn 98.078525 -19.509032 -0.000000
vn 92.387950 -38.268343 -0.000000
vn 83.146960 -55.557024 -0.000000
vn 70.710677 -70.710677 -0.000000
vn 55.557024 -83.146960 -0.000000
vn 38.268343 -92.387950 -0.000000
vn 19.509032 -98.078525 -0.000000
vn -0.000000 -100.000000 0.000000
vn -0.000000 -100.000000 0.000000
vn -0.000000 -100.000000 0.000000
vn 19.509032 -98.078525 -0.000000
vn 38.268343 -92.387950 -0.000000
vn 55.557024 -83.146960 -0.000000
vn 70.710677 -70.710677 -0.000000
vn 83.146960 -55.557024 -0.000000
vn 92.387950 -38.268343 -0.000000
vn 98.078525 -19.509032 -0.000000
vn 100.000000 -0.000000 -0.000000
vn 100.000000 -0.000000 -0.000000
vn -0.000000 0.000000 -100.000000
vn -0.000000 0.000000 -100.000000
vn -0.000000 0.000000 -100.000000
vn -0.000000 0.000000 -100.000000
vn -0.000000 0.000000 -100.000000
vn -0.000000 0.000000 -100.000000
vn -0.000000 0.000000 -100.000000
vn -0.000000 0.000000 -100.000000
vn -0.000000 0.000000 -100.000000
vn -0.000000 0.000000 -100.000000
vn -0.000000 0.000000 -100.000000
vn -0.000000 0.000000 -100.000000
vn -0.000000 0.000000 -100.000000
vn -0.000000 0.000000 -100.000000
vn -0.000000 0.000000 -100.000000
vn -0.000000 0.000000 -100.000000
vn -0.000000 0.000000 -100.000000
vn 0.000000 100.000000 -0.000000
vn 0.000000 100.000000 -0.000000
vn 0.000000 100.000000 -0.000000
vn 0.000000 100.000000 -0.000000
vn -0.000000 -100.000000 0.000000
vn -0.000000 -100.000000 0.000000
vn -0.000000 -100.000000 0.000000
vn -0.000000 -100.000000 0.000000
vn -0.000000 0.000000 -100.000000
vn -0.000000 0.000000 -100.000000
vn -0.000000 0.000000 -100.000000
vn -0.000000 0.000000 -100.000000
vn -100.000000 0.000000 0.000000
vn -100.000000 0.000000 0.000000
vn -100.000000 0.000000 0.000000
vn -100.000000 0.000000 0.000000
vn 100.000000 -0.000000 -0.000000
vn 100.000000 -0.000000 -0.000000
vn 100.000000 -0.000000 -0.000000
vn 100.000000 -0.000000 -0.000000
vn -0.000000 0.000000 -100.000000
vn -0.000000 0.000000 -100.000000
vn -0.000000 0.000000 -100.000000
vn -0.000000 0.000000 -100.000000
vn 100.000000 -0.000000 -0.000000
vn 100.000000 -0.000000 -0.000000
vn 100.000000 -0.000000 -0.000000
vn 100.000000 -0.000000 -0.000000
vn -100.000000 0.000000 0.000000
vn -100.000000 0.000000 0.000000
vn -100.000000 0.000000 0.000000
vn -100.000000 0.000000 0.000000
vn -0.000000 0.000000 -100.000000
vn -0.000000 0.000000 -100.000000
vn -0.000000 0.000000 -100.000000
vn -0.000000 0.000000 -100.000000
vn -0.000000 -100.000000 0.000000
vn -0.000000 -100.000000 0.000000
vn -0.000000 -100.000000 0.000000
vn -0.000000 -100.000000 0.000000
vn 0.000000 100.000000 -0.000000
vn 0.000000 100.000000 -0.000000
vn 0.000000 100.000000 -0.000000
vn 0.000000 100.000000 -0.000000
vn -0.000000 0.000000 -100.000000
vn -0.000000 0.000000 -100.000000
vn -0.000000 0.000000 -100.000000
vn -0.000000 0.000000 -100.000000
vn 0.000000 -0.000000 100.000000
vn 0.000000 -0.000000 100.000000
vn 0.000000 -0.000000 100.000000
vn 0.000000 -0.000000 100.000000
vn 0.000000 -0.000000 100.000000
vn 0.000000 -0.000000 100.000000
vn 0.000000 -0.000000 100.000000
vn 0.000000 -0.000000 100.000000
vn 0.000000 -0.000000 100.000000
vn 0.000000 -0.000000 100.000000
vn 0.000000 -0.000000 100.000000
vn 0.000000 -0.000000 100.000000
vn 0.000000 -0.000000 100.000000
vn 0.000000 -0.000000 100.000000
vn 0.000000 -0.000000 100.000000
vn 0.000000 -0.000000 100.000000
vn 0.000000 -0.000000 100.000000
vn 0.000000 -0.000000 100.000000
vn 0.000000 -0.000000 100.000000
vn 0.000000 -0.000000 100.000000
vn 0.000000 -0.000000 100.000000
vn 0.000000 -0.000000 100.000000
vn 0.000000 -0.000000 100.000000
vn 0.000000 -0.000000 100.000000
vn 0.000000 -0.000000 100.000000
vn 0.000000 -0.000000 100.000000
vn 0.000000 -0.000000 100.000000
vn 0.000000 -0.000000 100.000000
vn 0.000000 -0.000000 100.000000
vn 0.000000 -0.000000 100.000000
vn 0.000000 -0.000000 100.000000
vn 0.000000 -0.000000 100.000000
vn 0.000000 -0.000000 100.000000
vn 0.000000 -0.000000 100.000000
vn 0.000000 -0.000000 100.000000
vn 0.000000 -0.000000 100.000000
vn 0.000000 -0.000000 100.000000
vn 0.000000 -0.000000 100.000000
vn 0.000000 -0.000000 100.000000
vn 0.000000 -0.000000 100.000000
vn 0.000000 -0.000000 100.000000
vn 0.000000 -0.000000 100.000000
vn 0.000000 -0.000000 100.000000
vn 0.000000 -0.000000 100.000000
vn 0.000000 -0.000000 100.000000
vn 0.000000 -0.000000 100.000000
vn 0.000000 -0.000000 100.000000
vn 0.000000 -0.000000 100.000000
vn 0.000000 -0.000000 100.000000
vn 0.000000 -0.000000 100.000000
vn 0.000000 -0.000000 100.000000
vn 0.000000 -0.000000 100.000000
vn 0.000000 -0.000000 100.000000
vn 0.000000 -0.000000 100.000000
vn 0.000000 -0.000000 100.000000
vn 0.000000 -0.000000 100.000000
vn 0.000000 -0.000000 100.000000
vn 0.000000 -0.000000 100.000000
vn 0.000000 -0.000000 100.000000
vn 0.000000 -0.000000 100.000000
vn 0.000000 -0.000000 100.000000
vn 0.000000 -0.000000 100.000000
vn 0.000000 -0.000000 100.000000
vn 0.000000 -0.000000 100.000000
vn 0.000000 -0.000000 100.000000
vn 0.000000 -0.000000 100.000000
vn 0.000000 -0.000000 100.000000
vn 0.000000 -0.000000 100.000000
usemtl 5,5,5
f 83/1/1 84/2/2 87/4/4
f 87/4/4 84/2/2 88/3/3
f 126/5/5 122/6/6 128/22/22
f 128/22/22 122/6/6 124/20/20
f 128/22/22 124/20/20 130/21/21
f 124/20/20 122/6/6 120/19/19
f 120/19/19 122/6/6 118/7/7
f 120/19/19 118/7/7 112/18/18
f 112/18/18 118/7/7 110/8/8
f 112/18/18 110/8/8 108/17/17
f 108/17/17 110/8/8 106/9/9
f 108/17/17 106/9/9 100/16/16
f 100/16/16 106/9/9 98/10/10
f 100/16/16 98/10/10 92/15/15
f 92/15/15 98/10/10 90/11/11
f 92/15/15 90/11/11 83/13/13
f 83/13/13 90/11/11 79/12/12
f 83/13/13 87/14/14 92/15/15
f 150/23/23 128/24/24 152/26/26
f 152/26/26 128/24/24 130/25/25
f 80/27/27 94/28/28 84/46/46
f 84/46/46 94/28/28 96/44/44
f 84/46/46 96/44/44 88/45/45
f 96/44/44 94/28/28 104/43/43
f 104/43/43 94/28/28 102/29/29
f 104/43/43 102/29/29 116/42/42
f 116/42/42 102/29/29 114/30/30
f 116/42/42 114/30/30 134/41/41
f 134/41/41 114/30/30 132/31/31
f 134/41/41 132/31/31 138/40/40
f 138/40/40 132/31/31 136/32/32
f 138/40/40 136/32/32 142/39/39
f 142/39/39 136/32/32 140/33/33
f 142/39/39 140/33/33 146/38/38
f 146/38/38 140/33/33 144/34/34
f 146/38/38 144/34/34 150/36/36
f 150/36/36 144/34/34 148/35/35
f 150/36/36 152/37/37 146/38/38
f 88/47/47 96/48/48 87/63/63
f 87/63/63 96/48/48 92/62/62
f 92/62/62 96/48/48 104/49/49
f 92/62/62 104/49/49 100/61/61
f 100/61/61 104/49/49 116/50/50
f 100/61/61 116/50/50 108/60/60
f 108/60/60 116/50/50 134/51/51
f 108/60/60 134/51/51 112/59/59
f 112/59/59 134/51/51 138/52/52
f 112/59/59 138/52/52 120/58/58
f 120/58/58 138/52/52 142/53/53
f 120/58/58 142/53/53 124/57/57
f 124/57/57 142/53/53 146/54/54
f 124/57/57 146/54/54 130/56/56
f 130/56/56 146/54/54 152/55/55
f 127/64/64 149/65/65 129/67/67
f 129/67/67 149/65/65 151/66/66
f 78/68/68 89/69/69 82/85/85
f 82/85/85 89/69/69 91/83/83
f 82/85/85 91/83/83 86/84/84
f 91/83/83 89/69/69 99/82/82
f 99/82/82 89/69/69 97/70/70
f 99/82/82 97/70/70 107/81/81
f 107/81/81 97/70/70 105/71/71
f 107/81/81 105/71/71 111/80/80
f 111/80/80 105/71/71 109/72/72
f 111/80/80 109/72/72 119/79/79
f 119/79/79 109/72/72 117/73/73
f 119/79/79 117/73/73 123/78/78
f 123/78/78 117/73/73 121/74/74
f 123/78/78 121/74/74 127/76/76
f 127/76/76 121/74/74 125/75/75
f 127/76/76 129/77/77 123/78/78
f 81/86/86 82/87/87 85/89/89
f 85/89/89 82/87/87 86/88/88
f 147/90/90 143/91/91 149/109/109
f 149/109/109 143/91/91 145/107/107
f 149/109/109 145/107/107 151/108/108
f 145/107/107 143/91/91 141/106/106
f 141/106/106 143/91/91 139/92/92
f 141/106/106 139/92/92 137/105/105
f 137/105/105 139/92/92 135/93/93
f 137/105/105 135/93/93 133/104/104
f 133/104/104 135/93/93 131/94/94
f 133/104/104 131/94/94 115/103/103
f 115/103/103 131/94/94 113/95/95
f 115/103/103 113/95/95 103/102/102
f 103/102/102 113/95/95 101/96/96
f 103/102/102 101/96/96 95/101/101
f 95/101/101 101/96/96 93/97/97
f 95/101/101 93/97/97 81/99/99
f 81/99/99 93/97/97 77/98/98
f 81/99/99 85/100/100 95/101/101
f 151/110/110 145/111/111 129/126/126
f 129/126/126 145/111/111 123/125/125
f 123/125/125 145/111/111 141/112/112
f 123/125/125 141/112/112 119/124/124
f 119/124/124 141/112/112 137/113/113
f 119/124/124 137/113/113 111/123/123
f 111/123/123 137/113/113 133/114/114
f 111/123/123 133/114/114 107/122/122
f 107/122/122 133/114/114 115/115/115
f 107/122/122 115/115/115 99/121/121
f 99/121/121 115/115/115 103/116/116
f 99/121/121 103/116/116 91/120/120
f 91/120/120 103/116/116 95/117/117
f 91/120/120 95/117/117 86/119/119
f 86/119/119 95/117/117 85/118/118
f 26/127/127 4/128/128 28/130/130
f 28/130/130 4/128/128 6/129/129
f 67/131/131 62/132/132 71/148/148
f 71/148/148 62/132/132 64/146/146
f 71/148/148 64/146/146 75/147/147
f 64/146/146 62/132/132 56/145/145
f 56/145/145 62/132/132 54/133/133
f 56/145/145 54/133/133 48/144/144
f 48/144/144 54/133/133 46/134/134
f 48/144/144 46/134/134 44/143/143
f 44/143/143 46/134/134 42/135/135
f 44/143/143 42/135/135 36/142/142
f 36/142/142 42/135/135 34/136/136
f 36/142/142 34/136/136 32/141/141
f 32/141/141 34/136/136 30/137/137
f 32/141/141 30/137/137 26/139/139
f 26/139/139 30/137/137 24/138/138
f 26/139/139 28/140/140 32/141/141
f 72/149/149 71/150/150 76/152/152
f 76/152/152 71/150/150 75/151/151
f 2/153/153 8/154/154 4/172/172
f 4/172/172 8/154/154 10/170/170
f 4/172/172 10/170/170 6/171/171
f 10/170/170 8/154/154 14/169/169
f 14/169/169 8/154/154 12/155/155
f 14/169/169 12/155/155 18/168/168
f 18/168/168 12/155/155 16/156/156
f 18/168/168 16/156/156 22/167/167
f 22/167/167 16/156/156 20/157/157
f 22/167/167 20/157/157 40/166/166
f 40/166/166 20/157/157 38/158/158
f 40/166/166 38/158/158 52/165/165
f 52/165/165 38/158/158 50/159/159
f 52/165/165 50/159/159 60/164/164
f 60/164/164 50/159/159 58/160/160
f 60/164/164 58/160/160 72/162/162
f 72/162/162 58/160/160 68/161/161
f 72/162/162 76/163/163 60/164/164
f 6/173/173 10/174/174 28/189/189
f 28/189/189 10/174/174 32/188/188
f 32/188/188 10/174/174 14/175/175
f 32/188/188 14/175/175 36/187/187
f 36/187/187 14/175/175 18/176/176
f 36/187/187 18/176/176 44/186/186
f 44/186/186 18/176/176 22/177/177
f 44/186/186 22/177/177 48/185/185
f 48/185/185 22/177/177 40/178/178
f 48/185/185 40/178/178 56/184/184
f 56/184/184 40/178/178 52/179/179
f 56/184/184 52/179/179 64/183/183
f 64/183/183 52/179/179 60/180/180
f 64/183/183 60/180/180 75/182/182
f 75/182/182 60/180/180 76/181/181
f 70/190/190 69/191/191 74/193/193
f 74/193/193 69/191/191 73/192/192
f 23/194/194 29/195/195 25/211/211
f 25/211/211 29/195/195 31/209/209
f 25/211/211 31/209/209 27/210/210
f 31/209/209 29/195/195 35/208/208
f 35/208/208 29/195/195 33/196/196
f 35/208/208 33/196/196 43/207/207
f 43/207/207 33/196/196 41/197/197
f 43/207/207 41/197/197 47/206/206
f 47/206/206 41/197/197 45/198/198
f 47/206/206 45/198/198 55/205/205
f 55/205/205 45/198/198 53/199/199
f 55/205/205 53/199/199 63/204/204
f 63/204/204 53/199/199 61/200/200
f 63/204/204 61/200/200 70/202/202
f 70/202/202 61/200/200 66/201/201
f 70/202/202 74/203/203 63/204/204
f 3/212/212 25/213/213 5/215/215
f 5/215/215 25/213/213 27/214/214
f 65/216/216 57/217/217 69/235/235
f 69/235/235 57/217/217 59/233/233
f 69/235/235 59/233/233 73/234/234
f 59/233/233 57/217/217 51/232/232
f 51/232/232 57/217/217 49/218/218
f 51/232/232 49/218/218 39/231/231
f 39/231/231 49/218/218 37/219/219
f 39/231/231 37/219/219 21/230/230
f 21/230/230 37/219/219 19/220/220
f 21/230/230 19/220/220 17/229/229
f 17/229/229 19/220/220 15/221/221
f 17/229/229 15/221/221 13/228/228
f 13/228/228 15/221/221 11/222/222
f 13/228/228 11/222/222 9/227/227
f 9/227/227 11/222/222 7/223/223
f 9/227/227 7/223/223 3/225/225
f 3/225/225 7/223/223 1/224/224
f 3/225/225 5/226/226 9/227/227
f 73/237/237 59/238/238 74/236/236
f 74/236/236 59/238/238 63/252/252
f 63/252/252 59/238/238 51/239/239
f 63/252/252 51/239/239 55/251/251
f 55/251/251 51/239/239 39/240/240
f 55/251/251 39/240/240 47/250/250
f 47/250/250 39/240/240 21/241/241
f 47/250/250 21/241/241 43/249/249
f 43/249/249 21/241/241 17/242/242
f 43/249/249 17/242/242 35/248/248
f 35/248/248 17/242/242 13/243/243
f 35/248/248 13/243/243 31/247/247
f 31/247/247 13/243/243 9/244/244
f 31/247/247 9/244/244 27/246/246
f 27/246/246 9/244/244 5/245/245
f 24/253/253 23/254/254 26/256/256
f 26/256/256 23/254/254 25/255/255
f 1/257/257 2/258/258 3/260/260
f 3/260/260 2/258/258 4/259/259
f 3/262/262 4/263/263 25/261/261
f 25/261/261 4/263/263 26/264/264
f 66/265/265 78/266/266 70/268/268
f 70/268/268 78/266/266 82/267/267
f 77/269/269 65/270/270 81/272/272
f 81/272/272 65/270/270 69/271/271
f 69/274/274 70/275/275 81/273/273
f 81/273/273 70/275/275 82/276/276
f 79/277/277 67/278/278 83/280/280
f 83/280/280 67/278/278 71/279/279
f 68/281/281 80/282/282 72/284/284
f 72/284/284 80/282/282 84/283/283
f 84/286/286 83/287/287 72/285/285
f 72/285/285 83/287/287 71/288/288
f 125/289/289 126/290/290 127/292/292
f 127/292/292 126/290/290 128/291/291
f 148/293/293 147/294/294 150/296/296
f 150/296/296 147/294/294 149/295/295
f 150/297/297 149/298/298 128/300/300
f 128/300/300 149/298/298 127/299/299
f 125/302/302 148/333/333 126/301/301
f 126/301/301 148/333/333 144/334/334
f 126/301/301 144/334/334 122/332/332
f 122/332/332 144/334/334 140/335/335
f 122/332/332 140/335/335 136/336/336
f 121/303/303 143/367/367 125/302/302
f 125/302/302 143/367/367 147/368/368
f 125/302/302 147/368/368 148/333/333
f 117/304/304 135/365/365 121/303/303
f 121/303/303 135/365/365 139/366/366
f 121/303/303 139/366/366 143/367/367
f 135/365/365 117/304/304 131/364/364
f 131/364/364 117/304/304 109/305/305
f 131/364/364 109/305/305 113/363/363
f 113/363/363 109/305/305 105/306/306
f 113/363/363 105/306/306 101/362/362
f 101/362/362 105/306/306 97/307/307
f 101/362/362 97/307/307 93/361/361
f 93/361/361 97/307/307 89/308/308
f 93/361/361 89/308/308 77/360/360
f 77/360/360 89/308/308 78/309/309
f 77/360/360 78/309/309 65/359/359
f 65/359/359 78/309/309 66/310/310
f 65/359/359 66/310/310 61/311/311
f 65/359/359 61/311/311 57/358/358
f 57/358/358 61/311/311 53/312/312
f 57/358/358 53/312/312 49/357/357
f 49/357/357 53/312/312 45/313/313
f 49/357/357 45/313/313 37/356/356
f 37/356/356 45/313/313 41/314/314
f 37/356/356 41/314/314 19/355/355
f 19/355/355 41/314/314 33/315/315
f 19/355/355 33/315/315 15/354/354
f 15/354/354 33/315/315 29/316/316
f 15/354/354 29/316/316 11/353/353
f 11/353/353 29/316/316 7/352/352
f 7/352/352 29/316/316 23/317/317
f 7/352/352 23/317/317 1/351/351
f 1/351/351 23/317/317 24/318/318
f 1/351/351 24/318/318 2/350/350
f 2/350/350 24/318/318 8/349/349
f 8/349/349 24/318/318 30/319/319
f 8/349/349 30/319/319 12/348/348
f 12/348/348 30/319/319 16/347/347
f 16/347/347 30/319/319 34/320/320
f 16/347/347 34/320/320 20/346/346
f 20/346/346 34/320/320 42/321/321
f 20/346/346 42/321/321 38/345/345
f 38/345/345 42/321/321 46/322/322
f 38/345/345 46/322/322 50/344/344
f 50/344/344 46/322/322 54/323/323
f 50/344/344 54/323/323 58/343/343
f 58/343/343 54/323/323 62/324/324
f 58/343/343 62/324/324 68/342/342
f 68/342/342 62/324/324 67/325/325
f 68/342/342 67/325/325 80/341/341
f 80/341/341 67/325/325 79/326/326
f 80/341/341 79/326/326 90/327/327
f 80/341/341 90/327/327 94/340/340
f 94/340/340 90/327/327 98/328/328
f 94/340/340 98/328/328 102/339/339
f 102/339/339 98/328/328 106/329/329
f 102/339/339 106/329/329 114/338/338
f 114/338/338 106/329/329 110/330/330
f 114/338/338 110/330/330 132/337/337
f 132/337/337 110/330/330 118/331/331
f 132/337/337 118/331/331 136/336/336
f 136/336/336 118/331/331 122/332/332
# 152 vertices
# 368 texture params
# 368 normals
# 304 facets

# 1 groups
