# WaveFront *.obj file (generated by Autodesk ATF)

mtllib assembly_top.mtl

g Solid1:1

v -0.155000 -1.065000 0.010000
v -1.825000 -1.065000 0.010000
v -0.155000 -1.065000 -0.000000
v -1.825000 -1.065000 -0.000000
v -0.120509 -1.061114 0.010000
v -1.859491 -1.061114 0.010000
v -0.120509 -1.061114 -0.000000
v -1.859491 -1.061114 0.000000
v -0.087748 -1.049650 0.010000
v -1.892252 -1.049650 0.010000
v -0.087748 -1.049650 -0.000000
v -1.892252 -1.049650 0.000000
v -0.058359 -1.031184 0.010000
v -1.921641 -1.031184 0.010000
v -0.058359 -1.031184 -0.000000
v -1.921641 -1.031184 0.000000
v -0.033816 -1.006641 0.010000
v -1.946184 -1.006641 0.010000
v -0.033816 -1.006641 -0.000000
v -1.946184 -1.006641 0.000000
v -0.015350 -0.977252 0.010000
v -1.964650 -0.977252 0.010000
v -0.015350 -0.977252 -0.000000
v -1.964650 -0.977252 0.000000
v -0.003886 -0.944491 0.010000
v -1.976114 -0.944491 0.010000
v -0.003886 -0.944491 -0.000000
v -1.976114 -0.944491 0.000000
v 0.000000 -0.910000 0.010000
v -1.980000 -0.910000 0.010000
v 0.000000 -0.910000 -0.000000
v -1.980000 -0.910000 0.000000
v 0.000000 -0.155000 0.010000
v -1.980000 -0.155000 0.010000
v 0.000000 -0.155000 -0.000000
v -1.980000 -0.155000 0.000000
v -0.003886 -0.120509 0.010000
v -1.976114 -0.120509 0.010000
v -0.003886 -0.120509 -0.000000
v -1.976114 -0.120509 0.000000
v -0.015350 -0.087748 0.010000
v -1.964650 -0.087748 0.010000
v -0.015350 -0.087748 -0.000000
v -1.964650 -0.087748 0.000000
v -0.033816 -0.058359 0.010000
v -1.946184 -0.058359 0.010000
v -0.033816 -0.058359 -0.000000
v -1.946184 -0.058359 0.000000
v -0.058359 -0.033816 0.010000
v -1.921641 -0.033816 0.010000
v -0.058359 -0.033816 -0.000000
v -1.921641 -0.033816 0.000000
v -0.087748 -0.015350 0.010000
v -1.892252 -0.015350 0.010000
v -0.087748 -0.015350 -0.000000
v -1.892252 -0.015350 0.000000
v -0.120509 -0.003886 0.010000
v -1.859491 -0.003886 0.010000
v -0.120509 -0.003886 -0.000000
v -1.859491 -0.003886 0.000000
v -0.155000 0.000000 0.010000
v -1.825000 0.000000 0.010000
v -0.155000 0.000000 -0.000000
v -1.825000 0.000000 -0.000000
vt 0.000000 0.000000 0.000000
vt 75.500000 0.000000 0.000000
vt 75.500000 1.000000 0.000000
vt 0.000000 1.000000 0.000000
vt -0.000000 0.000000 0.000000
vt -0.000000 3.478192 0.000000
vt -0.000000 6.956384 0.000000
vt -0.000000 10.434575 0.000000
vt -0.000000 13.912767 0.000000
vt -0.000000 17.390959 0.000000
vt -0.000000 20.869150 0.000000
vt -0.000000 24.347343 0.000000
vt -1.000000 24.347343 0.000000
vt -1.000000 20.869150 0.000000
vt -1.000000 17.390959 0.000000
vt -1.000000 13.912767 0.000000
vt -1.000000 10.434575 0.000000
vt -1.000000 6.956384 0.000000
vt -1.000000 3.478192 0.000000
vt -1.000000 0.000000 0.000000
vt 0.000000 0.000000 0.000000
vt 167.000000 0.000000 0.000000
vt 167.000000 1.000000 0.000000
vt 0.000000 1.000000 0.000000
vt -0.000000 0.000000 0.000000
vt -0.000000 3.478192 0.000000
vt -0.000000 6.956384 0.000000
vt -0.000000 10.434575 0.000000
vt -0.000000 13.912767 0.000000
vt -0.000000 17.390959 0.000000
vt -0.000000 20.869150 0.000000
vt -0.000000 24.347343 0.000000
vt -1.000000 24.347343 0.000000
vt -1.000000 20.869150 0.000000
vt -1.000000 17.390959 0.000000
vt -1.000000 13.912767 0.000000
vt -1.000000 10.434575 0.000000
vt -1.000000 6.956384 0.000000
vt -1.000000 3.478192 0.000000
vt -1.000000 0.000000 0.000000
vt 0.000000 0.000000 0.000000
vt 75.500000 0.000000 0.000000
vt 75.500000 1.000000 0.000000
vt 0.000000 1.000000 0.000000
vt -0.000000 0.000000 0.000000
vt -0.000000 3.478192 0.000000
vt -0.000000 6.956384 0.000000
vt -0.000000 10.434575 0.000000
vt -0.000000 13.912767 0.000000
vt -0.000000 17.390959 0.000000
vt -0.000000 20.869150 0.000000
vt -0.000000 24.347343 0.000000
vt -1.000000 24.347343 0.000000
vt -1.000000 20.869150 0.000000
vt -1.000000 17.390959 0.000000
vt -1.000000 13.912767 0.000000
vt -1.000000 10.434575 0.000000
vt -1.000000 6.956384 0.000000
vt -1.000000 3.478192 0.000000
vt -1.000000 0.000000 0.000000
vt 0.000000 0.000000 0.000000
vt 167.000000 0.000000 0.000000
vt 167.000000 1.000000 0.000000
vt 0.000000 1.000000 0.000000
vt -0.000000 0.000000 0.000000
vt -0.000000 3.478192 0.000000
vt -0.000000 6.956384 0.000000
vt -0.000000 10.434575 0.000000
vt -0.000000 13.912767 0.000000
vt -0.000000 17.390959 0.000000
vt -0.000000 20.869150 0.000000
vt -0.000000 24.347343 0.000000
vt -1.000000 24.347343 0.000000
vt -1.000000 20.869150 0.000000
vt -1.000000 17.390959 0.000000
vt -1.000000 13.912767 0.000000
vt -1.000000 10.434575 0.000000
vt -1.000000 6.956384 0.000000
vt -1.000000 3.478192 0.000000
vt -1.000000 0.000000 0.000000
vt 99.000000 37.750000 0.000000
vt 98.611382 41.199074 0.000000
vt 97.465019 44.475197 0.000000
vt 95.618385 47.414093 0.000000
vt 93.164093 49.868389 0.000000
vt 90.225197 51.715019 0.000000
vt 86.949074 52.861382 0.000000
vt 83.500000 53.250000 0.000000
vt -83.500000 53.250000 0.000000
vt -86.949074 52.861382 0.000000
vt -90.225197 51.715019 0.000000
vt -93.164093 49.868389 0.000000
vt -95.618385 47.414093 0.000000
vt -97.465019 44.475197 0.000000
vt -98.611382 41.199074 0.000000
vt -99.000000 37.750000 0.000000
vt -99.000000 -37.750000 0.000000
vt -98.611382 -41.199074 0.000000
vt -97.465019 -44.475197 0.000000
vt -95.618385 -47.414093 0.000000
vt -93.164093 -49.868389 0.000000
vt -90.225197 -51.715019 0.000000
vt -86.949074 -52.861382 0.000000
vt -83.500000 -53.250000 0.000000
vt 83.500000 -53.250000 0.000000
vt 86.949074 -52.861382 0.000000
vt 90.225197 -51.715019 0.000000
vt 93.164093 -49.868389 0.000000
vt 95.618385 -47.414093 0.000000
vt 97.465019 -44.475197 0.000000
vt 98.611382 -41.199074 0.000000
vt 99.000000 -37.750000 0.000000
vt -83.500000 53.250000 0.000000
vt -86.949074 52.861382 0.000000
vt -90.225197 51.715019 0.000000
vt -93.164093 49.868389 0.000000
vt -95.618385 47.414093 0.000000
vt -97.465019 44.475197 0.000000
vt -98.611382 41.199074 0.000000
vt -99.000000 37.750000 0.000000
vt -99.000000 -37.750000 0.000000
vt -98.611382 -41.199074 0.000000
vt -97.465019 -44.475197 0.000000
vt -95.618385 -47.414093 0.000000
vt -93.164093 -49.868389 0.000000
vt -90.225197 -51.715019 0.000000
vt -86.949074 -52.861382 0.000000
vt -83.500000 -53.250000 0.000000
vt 83.500000 -53.250000 0.000000
vt 86.949074 -52.861382 0.000000
vt 90.225197 -51.715019 0.000000
vt 93.164093 -49.868389 0.000000
vt 95.618385 -47.414093 0.000000
vt 97.465019 -44.475197 0.000000
vt 98.611382 -41.199074 0.000000
vt 99.000000 -37.750000 0.000000
vt 99.000000 37.750000 0.000000
vt 98.611382 41.199074 0.000000
vt 97.465019 44.475197 0.000000
vt 95.618385 47.414093 0.000000
vt 93.164093 49.868389 0.000000
vt 90.225197 51.715019 0.000000
vt 86.949074 52.861382 0.000000
vt 83.500000 53.250000 0.000000
vn -100.000000 0.000000 0.000000
vn -100.000000 0.000000 0.000000
vn -100.000000 0.000000 0.000000
vn -100.000000 0.000000 0.000000
vn -0.000000 -100.000000 -0.000000
vn -22.252093 -97.492790 0.000000
vn -43.388373 -90.096885 0.000000
vn -62.348980 -78.183150 0.000000
vn -78.183150 -62.348980 0.000000
vn -90.096885 -43.388373 0.000000
vn -97.492790 -22.252093 0.000000
vn -100.000000 0.000000 0.000000
vn -100.000000 0.000000 0.000000
vn -97.492790 -22.252093 0.000000
vn -90.096885 -43.388373 0.000000
vn -78.183150 -62.348980 0.000000
vn -62.348980 -78.183150 0.000000
vn -43.388373 -90.096885 0.000000
vn -22.252093 -97.492790 0.000000
vn -0.000000 -100.000000 -0.000000
vn -0.000000 -100.000000 -0.000000
vn -0.000000 -100.000000 -0.000000
vn -0.000000 -100.000000 -0.000000
vn -0.000000 -100.000000 -0.000000
vn 100.000000 -0.000000 -0.000000
vn 97.492790 -22.252093 -0.000000
vn 90.096885 -43.388373 -0.000000
vn 78.183150 -62.348980 -0.000000
vn 62.348980 -78.183150 -0.000000
vn 43.388373 -90.096885 -0.000000
vn 22.252093 -97.492790 -0.000000
vn -0.000000 -100.000000 -0.000000
vn -0.000000 -100.000000 -0.000000
vn 22.252093 -97.492790 -0.000000
vn 43.388373 -90.096885 -0.000000
vn 62.348980 -78.183150 -0.000000
vn 78.183150 -62.348980 -0.000000
vn 90.096885 -43.388373 -0.000000
vn 97.492790 -22.252093 -0.000000
vn 100.000000 -0.000000 -0.000000
vn 100.000000 -0.000000 -0.000000
vn 100.000000 -0.000000 -0.000000
vn 100.000000 -0.000000 -0.000000
vn 100.000000 -0.000000 -0.000000
vn 0.000000 100.000000 0.000000
vn 22.252093 97.492790 -0.000000
vn 43.388373 90.096885 -0.000000
vn 62.348980 78.183150 -0.000000
vn 78.183150 62.348980 -0.000000
vn 90.096885 43.388373 -0.000000
vn 97.492790 22.252093 -0.000000
vn 100.000000 -0.000000 -0.000000
vn 100.000000 -0.000000 -0.000000
vn 97.492790 22.252093 -0.000000
vn 90.096885 43.388373 -0.000000
vn 78.183150 62.348980 -0.000000
vn 62.348980 78.183150 -0.000000
vn 43.388373 90.096885 -0.000000
vn 22.252093 97.492790 -0.000000
vn 0.000000 100.000000 0.000000
vn 0.000000 100.000000 0.000000
vn 0.000000 100.000000 0.000000
vn 0.000000 100.000000 0.000000
vn 0.000000 100.000000 0.000000
vn -100.000000 0.000000 0.000000
vn -97.492790 22.252093 0.000000
vn -90.096885 43.388373 0.000000
vn -78.183150 62.348980 0.000000
vn -62.348980 78.183150 0.000000
vn -43.388373 90.096885 0.000000
vn -22.252093 97.492790 0.000000
vn 0.000000 100.000000 0.000000
vn 0.000000 100.000000 0.000000
vn -22.252093 97.492790 0.000000
vn -43.388373 90.096885 0.000000
vn -62.348980 78.183150 0.000000
vn -78.183150 62.348980 0.000000
vn -90.096885 43.388373 0.000000
vn -97.492790 22.252093 0.000000
vn -100.000000 0.000000 0.000000
vn -0.000000 0.000000 -100.000000
vn -0.000000 0.000000 -100.000000
vn -0.000000 0.000000 -100.000000
vn -0.000000 0.000000 -100.000000
vn -0.000000 0.000000 -100.000000
vn -0.000000 0.000000 -100.000000
vn -0.000000 0.000000 -100.000000
vn -0.000000 0.000000 -100.000000
vn -0.000000 0.000000 -100.000000
vn -0.000000 0.000000 -100.000000
vn -0.000000 0.000000 -100.000000
vn -0.000000 0.000000 -100.000000
vn -0.000000 0.000000 -100.000000
vn -0.000000 0.000000 -100.000000
vn -0.000000 0.000000 -100.000000
vn -0.000000 0.000000 -100.000000
vn -0.000000 0.000000 -100.000000
vn -0.000000 0.000000 -100.000000
vn -0.000000 0.000000 -100.000000
vn -0.000000 0.000000 -100.000000
vn -0.000000 0.000000 -100.000000
vn -0.000000 0.000000 -100.000000
vn -0.000000 0.000000 -100.000000
vn -0.000000 0.000000 -100.000000
vn -0.000000 0.000000 -100.000000
vn -0.000000 0.000000 -100.000000
vn -0.000000 0.000000 -100.000000
vn -0.000000 0.000000 -100.000000
vn -0.000000 0.000000 -100.000000
vn -0.000000 0.000000 -100.000000
vn -0.000000 0.000000 -100.000000
vn -0.000000 0.000000 -100.000000
vn 0.000000 -0.000000 100.000000
vn 0.000000 -0.000000 100.000000
vn 0.000000 -0.000000 100.000000
vn 0.000000 -0.000000 100.000000
vn 0.000000 -0.000000 100.000000
vn 0.000000 -0.000000 100.000000
vn 0.000000 -0.000000 100.000000
vn 0.000000 -0.000000 100.000000
vn 0.000000 -0.000000 100.000000
vn 0.000000 -0.000000 100.000000
vn 0.000000 -0.000000 100.000000
vn 0.000000 -0.000000 100.000000
vn 0.000000 -0.000000 100.000000
vn 0.000000 -0.000000 100.000000
vn 0.000000 -0.000000 100.000000
vn 0.000000 -0.000000 100.000000
vn 0.000000 -0.000000 100.000000
vn 0.000000 -0.000000 100.000000
vn 0.000000 -0.000000 100.000000
vn 0.000000 -0.000000 100.000000
vn 0.000000 -0.000000 100.000000
vn 0.000000 -0.000000 100.000000
vn 0.000000 -0.000000 100.000000
vn 0.000000 -0.000000 100.000000
vn 0.000000 -0.000000 100.000000
vn 0.000000 -0.000000 100.000000
vn 0.000000 -0.000000 100.000000
vn 0.000000 -0.000000 100.000000
vn 0.000000 -0.000000 100.000000
vn 0.000000 -0.000000 100.000000
vn 0.000000 -0.000000 100.000000
vn 0.000000 -0.000000 100.000000
usemtl 254,254,255
f 30/1/1 34/2/2 32/4/4
f 32/4/4 34/2/2 36/3/3
f 4/20/20 2/5/5 8/19/19
f 8/19/19 2/5/5 6/6/6
f 8/19/19 6/6/6 12/18/18
f 12/18/18 6/6/6 10/7/7
f 12/18/18 10/7/7 16/17/17
f 16/17/17 10/7/7 14/8/8
f 16/17/17 14/8/8 20/16/16
f 20/16/16 14/8/8 18/9/9
f 20/16/16 18/9/9 24/15/15
f 24/15/15 18/9/9 22/10/10
f 24/15/15 22/10/10 28/14/14
f 28/14/14 22/10/10 26/11/11
f 28/14/14 26/11/11 32/13/13
f 32/13/13 26/11/11 30/12/12
f 1/21/21 2/22/22 3/24/24
f 3/24/24 2/22/22 4/23/23
f 31/40/40 29/25/25 27/39/39
f 27/39/39 29/25/25 25/26/26
f 27/39/39 25/26/26 23/38/38
f 23/38/38 25/26/26 21/27/27
f 23/38/38 21/27/27 19/37/37
f 19/37/37 21/27/27 17/28/28
f 19/37/37 17/28/28 15/36/36
f 15/36/36 17/28/28 13/29/29
f 15/36/36 13/29/29 11/35/35
f 11/35/35 13/29/29 9/30/30
f 11/35/35 9/30/30 7/34/34
f 7/34/34 9/30/30 5/31/31
f 7/34/34 5/31/31 3/33/33
f 3/33/33 5/31/31 1/32/32
f 33/41/41 29/42/42 35/44/44
f 35/44/44 29/42/42 31/43/43
f 63/60/60 61/45/45 59/59/59
f 59/59/59 61/45/45 57/46/46
f 59/59/59 57/46/46 55/58/58
f 55/58/58 57/46/46 53/47/47
f 55/58/58 53/47/47 51/57/57
f 51/57/57 53/47/47 49/48/48
f 51/57/57 49/48/48 47/56/56
f 47/56/56 49/48/48 45/49/49
f 47/56/56 45/49/49 43/55/55
f 43/55/55 45/49/49 41/50/50
f 43/55/55 41/50/50 39/54/54
f 39/54/54 41/50/50 37/51/51
f 39/54/54 37/51/51 35/53/53
f 35/53/53 37/51/51 33/52/52
f 62/61/61 61/62/62 64/64/64
f 64/64/64 61/62/62 63/63/63
f 36/80/80 34/65/65 40/79/79
f 40/79/79 34/65/65 38/66/66
f 40/79/79 38/66/66 44/78/78
f 44/78/78 38/66/66 42/67/67
f 44/78/78 42/67/67 48/77/77
f 48/77/77 42/67/67 46/68/68
f 48/77/77 46/68/68 52/76/76
f 52/76/76 46/68/68 50/69/69
f 52/76/76 50/69/69 56/75/75
f 56/75/75 50/69/69 54/70/70
f 56/75/75 54/70/70 60/74/74
f 60/74/74 54/70/70 58/71/71
f 60/74/74 58/71/71 64/73/73
f 64/73/73 58/71/71 62/72/72
f 40/82/82 64/88/88 36/81/81
f 36/81/81 64/88/88 63/89/89
f 36/81/81 63/89/89 35/96/96
f 35/96/96 63/89/89 39/95/95
f 39/95/95 63/89/89 43/94/94
f 43/94/94 63/89/89 47/93/93
f 47/93/93 63/89/89 51/92/92
f 51/92/92 63/89/89 55/91/91
f 55/91/91 63/89/89 59/90/90
f 40/82/82 44/83/83 64/88/88
f 64/88/88 44/83/83 48/84/84
f 64/88/88 48/84/84 52/85/85
f 52/85/85 56/86/86 64/88/88
f 64/88/88 56/86/86 60/87/87
f 36/81/81 35/96/96 32/112/112
f 32/112/112 35/96/96 31/97/97
f 32/112/112 31/97/97 4/105/105
f 4/105/105 31/97/97 3/104/104
f 3/104/104 31/97/97 27/98/98
f 3/104/104 27/98/98 23/99/99
f 23/99/99 19/100/100 3/104/104
f 3/104/104 19/100/100 15/101/101
f 3/104/104 15/101/101 11/102/102
f 11/102/102 7/103/103 3/104/104
f 8/106/106 12/107/107 4/105/105
f 4/105/105 12/107/107 16/108/108
f 4/105/105 16/108/108 20/109/109
f 20/109/109 24/110/110 4/105/105
f 4/105/105 24/110/110 28/111/111
f 4/105/105 28/111/111 32/112/112
f 58/114/114 54/115/115 62/113/113
f 62/113/113 54/115/115 50/116/116
f 62/113/113 50/116/116 46/117/117
f 46/117/117 42/118/118 62/113/113
f 62/113/113 42/118/118 38/119/119
f 62/113/113 38/119/119 34/120/120
f 30/121/121 29/136/136 34/120/120
f 34/120/120 29/136/136 33/137/137
f 34/120/120 33/137/137 62/113/113
f 62/113/113 33/137/137 61/144/144
f 61/144/144 33/137/137 37/138/138
f 61/144/144 37/138/138 41/139/139
f 26/122/122 2/128/128 30/121/121
f 30/121/121 2/128/128 1/129/129
f 30/121/121 1/129/129 29/136/136
f 29/136/136 1/129/129 25/135/135
f 25/135/135 1/129/129 21/134/134
f 21/134/134 1/129/129 17/133/133
f 17/133/133 1/129/129 13/132/132
f 13/132/132 1/129/129 9/131/131
f 9/131/131 1/129/129 5/130/130
f 26/122/122 22/123/123 2/128/128
f 2/128/128 22/123/123 18/124/124
f 2/128/128 18/124/124 14/125/125
f 14/125/125 10/126/126 2/128/128
f 2/128/128 10/126/126 6/127/127
f 41/139/139 45/140/140 61/144/144
f 61/144/144 45/140/140 49/141/141
f 61/144/144 49/141/141 53/142/142
f 53/142/142 57/143/143 61/144/144
# 64 vertices
# 144 texture params
# 144 normals
# 124 facets

# 2 groups
