# WaveFront *.obj file (generated by Autodesk ATF)

mtllib assembly_puck.mtl

g Solid1:2

v -0.037879 0.009282 -0.000000
v -0.037879 0.009282 -0.005000
v -0.038642 0.005272 -0.000000
v -0.036701 0.013191 -0.000000
v -0.038642 0.005272 -0.005000
v -0.036701 0.013191 -0.005000
v -0.038981 0.001204 -0.000000
v -0.035122 0.016955 -0.000000
v -0.038981 0.001204 -0.005000
v -0.035122 0.016955 -0.005000
v -0.038894 -0.002877 -0.000000
v -0.033157 0.020533 -0.000000
v -0.038894 -0.002877 -0.005000
v -0.033157 0.020533 -0.005000
v -0.038380 -0.006927 -0.000000
v -0.030829 0.023887 -0.000000
v -0.038380 -0.006927 -0.005000
v -0.030829 0.023887 -0.005000
v -0.037446 -0.010901 -0.000000
v -0.028163 0.026978 -0.000000
v -0.037446 -0.010901 -0.005000
v -0.028163 0.026978 -0.005000
v -0.036101 -0.014755 -0.000000
v -0.025189 0.029775 -0.000000
v -0.036101 -0.014755 -0.005000
v -0.025189 0.029775 -0.005000
v -0.034361 -0.018448 -0.000000
v -0.021939 0.032244 -0.000000
v -0.034361 -0.018448 -0.005000
v -0.021939 0.032244 -0.005000
v -0.032244 -0.021939 -0.000000
v -0.018448 0.034361 -0.000000
v -0.032244 -0.021939 -0.005000
v -0.018448 0.034361 -0.005000
v -0.029775 -0.025189 -0.000000
v -0.014755 0.036101 -0.000000
v -0.029775 -0.025189 -0.005000
v -0.014755 0.036101 -0.005000
v -0.026978 -0.028163 -0.000000
v -0.010901 0.037446 -0.000000
v -0.026978 -0.028163 -0.005000
v -0.010901 0.037446 -0.005000
v -0.023887 -0.030829 -0.000000
v -0.006927 0.038380 -0.000000
v -0.023887 -0.030829 -0.005000
v -0.006927 0.038380 -0.005000
v -0.020533 -0.033157 -0.000000
v -0.002877 0.038894 -0.000000
v -0.020533 -0.033157 -0.005000
v -0.002877 0.038894 -0.005000
v -0.016955 -0.035122 -0.000000
v 0.001204 0.038981 -0.000000
v -0.016955 -0.035122 -0.005000
v 0.001204 0.038981 -0.005000
v -0.013191 -0.036701 -0.000000
v 0.005272 0.038642 -0.000000
v -0.013191 -0.036701 -0.005000
v 0.005272 0.038642 -0.005000
v -0.009282 -0.037879 -0.000000
v 0.009282 0.037879 -0.000000
v -0.009282 -0.037879 -0.005000
v 0.009282 0.037879 -0.005000
v -0.005272 -0.038642 -0.000000
v 0.013191 0.036701 -0.000000
v -0.005272 -0.038642 -0.005000
v 0.013191 0.036701 -0.005000
v -0.001204 -0.038981 -0.000000
v 0.016955 0.035122 -0.000000
v -0.001204 -0.038981 -0.005000
v 0.016955 0.035122 -0.005000
v 0.002877 -0.038894 -0.000000
v 0.020533 0.033157 -0.000000
v 0.002877 -0.038894 -0.005000
v 0.020533 0.033157 -0.005000
v 0.006927 -0.038380 -0.000000
v 0.023887 0.030829 -0.000000
v 0.006927 -0.038380 -0.005000
v 0.023887 0.030829 -0.005000
v 0.010901 -0.037446 -0.000000
v 0.026978 0.028163 -0.000000
v 0.010901 -0.037446 -0.005000
v 0.026978 0.028163 -0.005000
v 0.014755 -0.036101 -0.000000
v 0.029775 0.025189 -0.000000
v 0.014755 -0.036101 -0.005000
v 0.029775 0.025189 -0.005000
v 0.018448 -0.034361 -0.000000
v 0.032244 0.021939 -0.000000
v 0.018448 -0.034361 -0.005000
v 0.032244 0.021939 -0.005000
v 0.021939 -0.032244 -0.000000
v 0.034361 0.018448 -0.000000
v 0.021939 -0.032244 -0.005000
v 0.034361 0.018448 -0.005000
v 0.025189 -0.029775 -0.000000
v 0.036101 0.014755 -0.000000
v 0.025189 -0.029775 -0.005000
v 0.036101 0.014755 -0.005000
v 0.028163 -0.026978 -0.000000
v 0.037446 0.010901 -0.000000
v 0.028163 -0.026978 -0.005000
v 0.037446 0.010901 -0.005000
v 0.030829 -0.023887 -0.000000
v 0.038380 0.006927 -0.000000
v 0.030829 -0.023887 -0.005000
v 0.038380 0.006927 -0.005000
v 0.033157 -0.020533 -0.000000
v 0.038894 0.002877 -0.000000
v 0.033157 -0.020533 -0.005000
v 0.038894 0.002877 -0.005000
v 0.035122 -0.016955 -0.000000
v 0.038981 -0.001204 -0.000000
v 0.035122 -0.016955 -0.005000
v 0.038981 -0.001204 -0.005000
v 0.036701 -0.013191 -0.000000
v 0.038642 -0.005272 -0.000000
v 0.036701 -0.013191 -0.005000
v 0.038642 -0.005272 -0.005000
v 0.037879 -0.009282 -0.000000
v 0.037879 -0.009282 -0.005000
vt -0.500000 0.000000 0.000000
vt -0.500000 -0.408407 0.000000
vt -0.500000 -0.816814 0.000000
vt -0.500000 -1.225221 0.000000
vt -0.500000 -1.633628 0.000000
vt -0.500000 -2.042035 0.000000
vt -0.500000 -2.450442 0.000000
vt -0.500000 -2.858850 0.000000
vt -0.500000 -3.267256 0.000000
vt -0.500000 -3.675664 0.000000
vt -0.500000 -4.084071 0.000000
vt -0.500000 -4.492478 0.000000
vt -0.500000 -4.900885 0.000000
vt -0.500000 -5.309292 0.000000
vt -0.500000 -5.717699 0.000000
vt -0.500000 -6.126106 0.000000
vt -0.500000 -6.534513 0.000000
vt -0.500000 -6.942920 0.000000
vt -0.500000 -7.351327 0.000000
vt -0.500000 -7.759734 0.000000
vt -0.500000 -8.168141 0.000000
vt -0.500000 -8.576548 0.000000
vt -0.500000 -8.984956 0.000000
vt -0.500000 -9.393362 0.000000
vt -0.500000 -9.801769 0.000000
vt -0.500000 -10.210176 0.000000
vt -0.500000 -10.618584 0.000000
vt -0.500000 -11.026990 0.000000
vt -0.500000 -11.435398 0.000000
vt -0.500000 -11.843804 0.000000
vt -0.500000 12.252212 0.000000
vt -0.500000 11.843804 0.000000
vt -0.500000 11.435398 0.000000
vt -0.500000 11.026990 0.000000
vt -0.500000 10.618584 0.000000
vt -0.500000 10.210176 0.000000
vt -0.500000 9.801769 0.000000
vt -0.500000 9.393362 0.000000
vt -0.500000 8.984956 0.000000
vt -0.500000 8.576548 0.000000
vt -0.500000 8.168141 0.000000
vt -0.500000 7.759734 0.000000
vt -0.500000 7.351327 0.000000
vt -0.500000 6.942920 0.000000
vt -0.500000 6.534513 0.000000
vt -0.500000 6.126106 0.000000
vt -0.500000 5.717699 0.000000
vt -0.500000 5.309292 0.000000
vt -0.500000 4.900885 0.000000
vt -0.500000 4.492478 0.000000
vt -0.500000 4.084071 0.000000
vt -0.500000 3.675664 0.000000
vt -0.500000 3.267256 0.000000
vt -0.500000 2.858850 0.000000
vt -0.500000 2.450442 0.000000
vt -0.500000 2.042035 0.000000
vt -0.500000 1.633628 0.000000
vt -0.500000 1.225221 0.000000
vt -0.500000 0.816814 0.000000
vt -0.500000 0.408407 0.000000
vt -0.000000 0.000000 0.000000
vt -0.000000 0.408407 0.000000
vt -0.000000 0.816814 0.000000
vt -0.000000 1.225221 0.000000
vt -0.000000 1.633628 0.000000
vt -0.000000 2.042035 0.000000
vt -0.000000 2.450442 0.000000
vt -0.000000 2.858850 0.000000
vt -0.000000 3.267256 0.000000
vt -0.000000 3.675664 0.000000
vt -0.000000 4.084071 0.000000
vt -0.000000 4.492478 0.000000
vt -0.000000 4.900885 0.000000
vt -0.000000 5.309292 0.000000
vt -0.000000 5.717699 0.000000
vt -0.000000 6.126106 0.000000
vt -0.000000 6.534513 0.000000
vt -0.000000 6.942920 0.000000
vt -0.000000 7.351327 0.000000
vt -0.000000 7.759734 0.000000
vt -0.000000 8.168141 0.000000
vt -0.000000 8.576548 0.000000
vt -0.000000 8.984956 0.000000
vt -0.000000 9.393362 0.000000
vt -0.000000 9.801769 0.000000
vt -0.000000 10.210176 0.000000
vt -0.000000 10.618584 0.000000
vt -0.000000 11.026990 0.000000
vt -0.000000 11.435398 0.000000
vt -0.000000 11.843804 0.000000
vt -0.000000 -12.252212 0.000000
vt -0.000000 -11.843804 0.000000
vt -0.000000 -11.435398 0.000000
vt -0.000000 -11.026990 0.000000
vt -0.000000 -10.618584 0.000000
vt -0.000000 -10.210176 0.000000
vt -0.000000 -9.801769 0.000000
vt -0.000000 -9.393362 0.000000
vt -0.000000 -8.984956 0.000000
vt -0.000000 -8.576548 0.000000
vt -0.000000 -8.168141 0.000000
vt -0.000000 -7.759734 0.000000
vt -0.000000 -7.351327 0.000000
vt -0.000000 -6.942920 0.000000
vt -0.000000 -6.534513 0.000000
vt -0.000000 -6.126106 0.000000
vt -0.000000 -5.717699 0.000000
vt -0.000000 -5.309292 0.000000
vt -0.000000 -4.900885 0.000000
vt -0.000000 -4.492478 0.000000
vt -0.000000 -4.084071 0.000000
vt -0.000000 -3.675664 0.000000
vt -0.000000 -3.267256 0.000000
vt -0.000000 -2.858850 0.000000
vt -0.000000 -2.450442 0.000000
vt -0.000000 -2.042035 0.000000
vt -0.000000 -1.633628 0.000000
vt -0.000000 -1.225221 0.000000
vt -0.000000 -0.816814 0.000000
vt -0.000000 -0.408407 0.000000
vt -0.000000 12.252212 0.000000
vt -0.500000 -12.252212 0.000000
vt 0.000000 -3.900000 0.000000
vt 0.407661 -3.878635 0.000000
vt 0.810856 -3.814776 0.000000
vt 1.205166 -3.709121 0.000000
vt 1.586273 -3.562827 0.000000
vt 1.950000 -3.377499 0.000000
vt 2.292362 -3.155166 0.000000
vt 2.609609 -2.898265 0.000000
vt 2.898265 -2.609609 0.000000
vt 3.155166 -2.292362 0.000000
vt 3.377499 -1.950000 0.000000
vt 3.562827 -1.586273 0.000000
vt 3.709121 -1.205166 0.000000
vt 3.814776 -0.810856 0.000000
vt 3.878635 -0.407661 0.000000
vt 3.900000 0.000000 0.000000
vt 3.878635 0.407661 0.000000
vt 3.814776 0.810856 0.000000
vt 3.709121 1.205166 0.000000
vt 3.562827 1.586273 0.000000
vt 3.377499 1.950000 0.000000
vt 3.155166 2.292362 0.000000
vt 2.898265 2.609609 0.000000
vt 2.609609 2.898265 0.000000
vt 2.292362 3.155166 0.000000
vt 1.950000 3.377499 0.000000
vt 1.586273 3.562827 0.000000
vt 1.205166 3.709121 0.000000
vt 0.810856 3.814776 0.000000
vt 0.407661 3.878635 0.000000
vt 0.000000 3.900000 0.000000
vt -0.407661 3.878635 0.000000
vt -0.810856 3.814776 0.000000
vt -1.205166 3.709121 0.000000
vt -1.586273 3.562827 0.000000
vt -1.950000 3.377499 0.000000
vt -2.292362 3.155166 0.000000
vt -2.609609 2.898265 0.000000
vt -2.898265 2.609609 0.000000
vt -3.155166 2.292362 0.000000
vt -3.377499 1.950000 0.000000
vt -3.562827 1.586273 0.000000
vt -3.709121 1.205166 0.000000
vt -3.814776 0.810856 0.000000
vt -3.878635 0.407661 0.000000
vt -3.900000 0.000000 0.000000
vt -3.878635 -0.407661 0.000000
vt -3.814776 -0.810856 0.000000
vt -3.709121 -1.205166 0.000000
vt -3.562827 -1.586273 0.000000
vt -3.377499 -1.950000 0.000000
vt -3.155166 -2.292362 0.000000
vt -2.898265 -2.609609 0.000000
vt -2.609609 -2.898265 0.000000
vt -2.292362 -3.155166 0.000000
vt -1.950000 -3.377499 0.000000
vt -1.586273 -3.562827 0.000000
vt -1.205166 -3.709121 0.000000
vt -0.810856 -3.814776 0.000000
vt -0.407661 -3.878635 0.000000
vt -0.000000 -3.900000 0.000000
vt 0.407661 -3.878635 0.000000
vt 0.810856 -3.814776 0.000000
vt 1.205166 -3.709121 0.000000
vt 1.586273 -3.562827 0.000000
vt 1.950000 -3.377499 0.000000
vt 2.292362 -3.155166 0.000000
vt 2.609609 -2.898265 0.000000
vt 2.898265 -2.609609 0.000000
vt 3.155166 -2.292362 0.000000
vt 3.377499 -1.950000 0.000000
vt 3.562827 -1.586273 0.000000
vt 3.709121 -1.205166 0.000000
vt 3.814776 -0.810856 0.000000
vt 3.878635 -0.407661 0.000000
vt 3.900000 0.000000 0.000000
vt 3.878635 0.407661 0.000000
vt 3.814776 0.810856 0.000000
vt 3.709121 1.205166 0.000000
vt 3.562827 1.586273 0.000000
vt 3.377499 1.950000 0.000000
vt 3.155166 2.292362 0.000000
vt 2.898265 2.609609 0.000000
vt 2.609609 2.898265 0.000000
vt 2.292362 3.155166 0.000000
vt 1.950000 3.377499 0.000000
vt 1.586273 3.562827 0.000000
vt 1.205166 3.709121 0.000000
vt 0.810856 3.814776 0.000000
vt 0.407661 3.878635 0.000000
vt -0.000000 3.900000 0.000000
vt -0.407661 3.878635 0.000000
vt -0.810856 3.814776 0.000000
vt -1.205166 3.709121 0.000000
vt -1.586273 3.562827 0.000000
vt -1.950000 3.377499 0.000000
vt -2.292362 3.155166 0.000000
vt -2.609609 2.898265 0.000000
vt -2.898265 2.609609 0.000000
vt -3.155166 2.292362 0.000000
vt -3.377499 1.950000 0.000000
vt -3.562827 1.586273 0.000000
vt -3.709121 1.205166 0.000000
vt -3.814776 0.810856 0.000000
vt -3.878635 0.407661 0.000000
vt -3.900000 0.000000 0.000000
vt -3.878635 -0.407661 0.000000
vt -3.814776 -0.810856 0.000000
vt -3.709121 -1.205166 0.000000
vt -3.562827 -1.586273 0.000000
vt -3.377499 -1.950000 0.000000
vt -3.155166 -2.292362 0.000000
vt -2.898265 -2.609609 0.000000
vt -2.609609 -2.898265 0.000000
vt -2.292362 -3.155166 0.000000
vt -1.950000 -3.377499 0.000000
vt -1.586273 -3.562827 0.000000
vt -1.205166 -3.709121 0.000000
vt -0.810856 -3.814776 0.000000
vt -0.407661 -3.878635 0.000000
vn -97.126221 23.801203 0.000000
vn -99.082058 13.518363 0.000000
vn -99.952330 3.087414 0.000000
vn -99.727504 -7.377364 0.000000
vn -98.410036 -17.761313 0.000000
vn -96.014374 -27.950664 0.000000
vn -92.566760 -37.833781 0.000000
vn -88.104961 -47.302388 0.000000
vn -82.677869 -56.252733 0.000000
vn -76.344937 -64.586768 0.000000
vn -69.175556 -72.213171 0.000000
vn -61.248273 -79.048394 0.000000
vn -52.649943 -85.017551 0.000000
vn -43.474766 -90.055234 0.000000
vn -33.823273 -94.106252 0.000000
vn -23.801203 -97.126221 0.000000
vn -13.518363 -99.082058 0.000000
vn -3.087414 -99.952330 -0.000000
vn 7.377364 -99.727504 -0.000000
vn 17.761313 -98.410036 -0.000000
vn 27.950664 -96.014374 -0.000000
vn 37.833781 -92.566760 -0.000000
vn 47.302388 -88.104961 -0.000000
vn 56.252733 -82.677869 -0.000000
vn 64.586768 -76.344937 -0.000000
vn 72.213171 -69.175556 -0.000000
vn 79.048394 -61.248273 -0.000000
vn 85.017551 -52.649943 -0.000000
vn 90.055234 -43.474766 -0.000000
vn 94.106252 -33.823273 -0.000000
vn 97.126221 -23.801203 -0.000000
vn 99.082058 -13.518363 -0.000000
vn 99.952330 -3.087414 -0.000000
vn 99.727504 7.377364 -0.000000
vn 98.410036 17.761313 -0.000000
vn 96.014374 27.950664 -0.000000
vn 92.566760 37.833781 -0.000000
vn 88.104961 47.302388 -0.000000
vn 82.677869 56.252733 -0.000000
vn 76.344937 64.586768 -0.000000
vn 69.175556 72.213171 -0.000000
vn 61.248273 79.048394 -0.000000
vn 52.649943 85.017551 -0.000000
vn 43.474766 90.055234 -0.000000
vn 33.823273 94.106252 -0.000000
vn 23.801203 97.126221 -0.000000
vn 13.518363 99.082058 -0.000000
vn 3.087414 99.952330 0.000000
vn -7.377364 99.727504 0.000000
vn -17.761313 98.410036 0.000000
vn -27.950664 96.014374 0.000000
vn -37.833781 92.566760 0.000000
vn -47.302388 88.104961 0.000000
vn -56.252733 82.677869 0.000000
vn -64.586768 76.344937 0.000000
vn -72.213171 69.175556 0.000000
vn -79.048394 61.248273 0.000000
vn -85.017551 52.649943 0.000000
vn -90.055234 43.474766 0.000000
vn -94.106252 33.823273 0.000000
vn -97.126221 23.801203 0.000000
vn -94.106252 33.823273 0.000000
vn -90.055234 43.474766 0.000000
vn -85.017551 52.649943 0.000000
vn -79.048394 61.248273 0.000000
vn -72.213171 69.175556 0.000000
vn -64.586768 76.344937 0.000000
vn -56.252733 82.677869 0.000000
vn -47.302388 88.104961 0.000000
vn -37.833781 92.566760 0.000000
vn -27.950664 96.014374 0.000000
vn -17.761313 98.410036 0.000000
vn -7.377364 99.727504 0.000000
vn 3.087414 99.952330 0.000000
vn 13.518363 99.082058 -0.000000
vn 23.801203 97.126221 -0.000000
vn 33.823273 94.106252 -0.000000
vn 43.474766 90.055234 -0.000000
vn 52.649943 85.017551 -0.000000
vn 61.248273 79.048394 -0.000000
vn 69.175556 72.213171 -0.000000
vn 76.344937 64.586768 -0.000000
vn 82.677869 56.252733 -0.000000
vn 88.104961 47.302388 -0.000000
vn 92.566760 37.833781 -0.000000
vn 96.014374 27.950664 -0.000000
vn 98.410036 17.761313 -0.000000
vn 99.727504 7.377364 -0.000000
vn 99.952330 -3.087414 -0.000000
vn 99.082058 -13.518363 -0.000000
vn 97.126221 -23.801203 -0.000000
vn 94.106252 -33.823273 -0.000000
vn 90.055234 -43.474766 -0.000000
vn 85.017551 -52.649943 -0.000000
vn 79.048394 -61.248273 -0.000000
vn 72.213171 -69.175556 -0.000000
vn 64.586768 -76.344937 -0.000000
vn 56.252733 -82.677869 -0.000000
vn 47.302388 -88.104961 -0.000000
vn 37.833781 -92.566760 -0.000000
vn 27.950664 -96.014374 -0.000000
vn 17.761313 -98.410036 -0.000000
vn 7.377364 -99.727504 -0.000000
vn -3.087414 -99.952330 -0.000000
vn -13.518363 -99.082058 0.000000
vn -23.801203 -97.126221 0.000000
vn -33.823273 -94.106252 0.000000
vn -43.474766 -90.055234 0.000000
vn -52.649943 -85.017551 0.000000
vn -61.248273 -79.048394 0.000000
vn -69.175556 -72.213171 0.000000
vn -76.344937 -64.586768 0.000000
vn -82.677869 -56.252733 0.000000
vn -88.104961 -47.302388 0.000000
vn -92.566760 -37.833781 0.000000
vn -96.014374 -27.950664 0.000000
vn -98.410036 -17.761313 0.000000
vn -99.727504 -7.377364 0.000000
vn -99.952330 3.087414 0.000000
vn -99.082058 13.518363 0.000000
vn 97.126221 -23.801203 -0.000000
vn 97.126221 -23.801203 -0.000000
vn -0.000000 0.000000 -100.000000
vn -0.000000 0.000000 -100.000000
vn -0.000000 0.000000 -100.000000
vn -0.000000 0.000000 -100.000000
vn -0.000000 0.000000 -100.000000
vn -0.000000 0.000000 -100.000000
vn -0.000000 0.000000 -100.000000
vn -0.000000 0.000000 -100.000000
vn -0.000000 0.000000 -100.000000
vn -0.000000 0.000000 -100.000000
vn -0.000000 0.000000 -100.000000
vn -0.000000 0.000000 -100.000000
vn -0.000000 0.000000 -100.000000
vn -0.000000 0.000000 -100.000000
vn -0.000000 0.000000 -100.000000
vn -0.000000 0.000000 -100.000000
vn -0.000000 0.000000 -100.000000
vn -0.000000 0.000000 -100.000000
vn -0.000000 0.000000 -100.000000
vn -0.000000 0.000000 -100.000000
vn -0.000000 0.000000 -100.000000
vn -0.000000 0.000000 -100.000000
vn -0.000000 0.000000 -100.000000
vn -0.000000 0.000000 -100.000000
vn -0.000000 0.000000 -100.000000
vn -0.000000 0.000000 -100.000000
vn -0.000000 0.000000 -100.000000
vn -0.000000 0.000000 -100.000000
vn -0.000000 0.000000 -100.000000
vn -0.000000 0.000000 -100.000000
vn -0.000000 0.000000 -100.000000
vn -0.000000 0.000000 -100.000000
vn -0.000000 0.000000 -100.000000
vn -0.000000 0.000000 -100.000000
vn -0.000000 0.000000 -100.000000
vn -0.000000 0.000000 -100.000000
vn -0.000000 0.000000 -100.000000
vn -0.000000 0.000000 -100.000000
vn -0.000000 0.000000 -100.000000
vn -0.000000 0.000000 -100.000000
vn -0.000000 0.000000 -100.000000
vn -0.000000 0.000000 -100.000000
vn -0.000000 0.000000 -100.000000
vn -0.000000 0.000000 -100.000000
vn -0.000000 0.000000 -100.000000
vn -0.000000 0.000000 -100.000000
vn -0.000000 0.000000 -100.000000
vn -0.000000 0.000000 -100.000000
vn -0.000000 0.000000 -100.000000
vn -0.000000 0.000000 -100.000000
vn -0.000000 0.000000 -100.000000
vn -0.000000 0.000000 -100.000000
vn -0.000000 0.000000 -100.000000
vn -0.000000 0.000000 -100.000000
vn -0.000000 0.000000 -100.000000
vn -0.000000 0.000000 -100.000000
vn -0.000000 0.000000 -100.000000
vn -0.000000 0.000000 -100.000000
vn -0.000000 0.000000 -100.000000
vn -0.000000 0.000000 -100.000000
vn 0.000000 -0.000000 100.000000
vn 0.000000 -0.000000 100.000000
vn 0.000000 -0.000000 100.000000
vn 0.000000 -0.000000 100.000000
vn 0.000000 -0.000000 100.000000
vn 0.000000 -0.000000 100.000000
vn 0.000000 -0.000000 100.000000
vn 0.000000 -0.000000 100.000000
vn 0.000000 -0.000000 100.000000
vn 0.000000 -0.000000 100.000000
vn 0.000000 -0.000000 100.000000
vn 0.000000 -0.000000 100.000000
vn 0.000000 -0.000000 100.000000
vn 0.000000 -0.000000 100.000000
vn 0.000000 -0.000000 100.000000
vn 0.000000 -0.000000 100.000000
vn 0.000000 -0.000000 100.000000
vn 0.000000 -0.000000 100.000000
vn 0.000000 -0.000000 100.000000
vn 0.000000 -0.000000 100.000000
vn 0.000000 -0.000000 100.000000
vn 0.000000 -0.000000 100.000000
vn 0.000000 -0.000000 100.000000
vn 0.000000 -0.000000 100.000000
vn 0.000000 -0.000000 100.000000
vn 0.000000 -0.000000 100.000000
vn 0.000000 -0.000000 100.000000
vn 0.000000 -0.000000 100.000000
vn 0.000000 -0.000000 100.000000
vn 0.000000 -0.000000 100.000000
vn 0.000000 -0.000000 100.000000
vn 0.000000 -0.000000 100.000000
vn 0.000000 -0.000000 100.000000
vn 0.000000 -0.000000 100.000000
vn 0.000000 -0.000000 100.000000
vn 0.000000 -0.000000 100.000000
vn 0.000000 -0.000000 100.000000
vn 0.000000 -0.000000 100.000000
vn 0.000000 -0.000000 100.000000
vn 0.000000 -0.000000 100.000000
vn 0.000000 -0.000000 100.000000
vn 0.000000 -0.000000 100.000000
vn 0.000000 -0.000000 100.000000
vn 0.000000 -0.000000 100.000000
vn 0.000000 -0.000000 100.000000
vn 0.000000 -0.000000 100.000000
vn 0.000000 -0.000000 100.000000
vn 0.000000 -0.000000 100.000000
vn 0.000000 -0.000000 100.000000
vn 0.000000 -0.000000 100.000000
vn 0.000000 -0.000000 100.000000
vn 0.000000 -0.000000 100.000000
vn 0.000000 -0.000000 100.000000
vn 0.000000 -0.000000 100.000000
vn 0.000000 -0.000000 100.000000
vn 0.000000 -0.000000 100.000000
vn 0.000000 -0.000000 100.000000
vn 0.000000 -0.000000 100.000000
vn 0.000000 -0.000000 100.000000
vn 0.000000 -0.000000 100.000000
usemtl 0,128,255
f 5/2/2 1/61/61 2/1/1
f 2/1/1 1/61/61 4/62/62
f 2/1/1 4/62/62 6/60/60
f 6/60/60 4/62/62 8/63/63
f 6/60/60 8/63/63 10/59/59
f 10/59/59 8/63/63 12/64/64
f 10/59/59 12/64/64 14/58/58
f 14/58/58 12/64/64 16/65/65
f 14/58/58 16/65/65 18/57/57
f 18/57/57 16/65/65 20/66/66
f 18/57/57 20/66/66 22/56/56
f 22/56/56 20/66/66 24/67/67
f 22/56/56 24/67/67 26/55/55
f 26/55/55 24/67/67 28/68/68
f 26/55/55 28/68/68 30/54/54
f 30/54/54 28/68/68 32/69/69
f 30/54/54 32/69/69 34/53/53
f 34/53/53 32/69/69 36/70/70
f 34/53/53 36/70/70 38/52/52
f 38/52/52 36/70/70 40/71/71
f 38/52/52 40/71/71 42/51/51
f 42/51/51 40/71/71 44/72/72
f 42/51/51 44/72/72 46/50/50
f 46/50/50 44/72/72 48/73/73
f 46/50/50 48/73/73 50/49/49
f 50/49/49 48/73/73 52/74/74
f 50/49/49 52/74/74 54/48/48
f 54/48/48 52/74/74 56/75/75
f 54/48/48 56/75/75 58/47/47
f 58/47/47 56/75/75 60/76/76
f 58/47/47 60/76/76 62/46/46
f 62/46/46 60/76/76 64/77/77
f 62/46/46 64/77/77 66/45/45
f 66/45/45 64/77/77 68/78/78
f 66/45/45 68/78/78 70/44/44
f 70/44/44 68/78/78 72/79/79
f 70/44/44 72/79/79 74/43/43
f 74/43/43 72/79/79 76/80/80
f 74/43/43 76/80/80 78/42/42
f 78/42/42 76/80/80 80/81/81
f 78/42/42 80/81/81 82/41/41
f 82/41/41 80/81/81 84/82/82
f 82/41/41 84/82/82 86/40/40
f 86/40/40 84/82/82 88/83/83
f 86/40/40 88/83/83 90/39/39
f 90/39/39 88/83/83 92/84/84
f 90/39/39 92/84/84 94/38/38
f 94/38/38 92/84/84 96/85/85
f 94/38/38 96/85/85 98/37/37
f 98/37/37 96/85/85 100/86/86
f 98/37/37 100/86/86 102/36/36
f 102/36/36 100/86/86 104/87/87
f 102/36/36 104/87/87 106/35/35
f 106/35/35 104/87/87 108/88/88
f 106/35/35 108/88/88 110/34/34
f 110/34/34 108/88/88 112/89/89
f 110/34/34 112/89/89 114/33/33
f 114/33/33 112/89/89 116/90/90
f 114/33/33 116/90/90 118/32/32
f 118/32/32 116/90/90 120/31/31
f 120/31/31 116/90/90 119/121/121
f 120/122/122 119/91/91 117/30/30
f 117/30/30 119/91/91 115/92/92
f 117/30/30 115/92/92 111/93/93
f 1/61/61 5/2/2 3/120/120
f 3/120/120 5/2/2 9/3/3
f 3/120/120 9/3/3 7/119/119
f 7/119/119 9/3/3 13/4/4
f 7/119/119 13/4/4 11/118/118
f 11/118/118 13/4/4 17/5/5
f 11/118/118 17/5/5 15/117/117
f 15/117/117 17/5/5 21/6/6
f 15/117/117 21/6/6 19/116/116
f 19/116/116 21/6/6 25/7/7
f 19/116/116 25/7/7 23/115/115
f 23/115/115 25/7/7 29/8/8
f 23/115/115 29/8/8 27/114/114
f 27/114/114 29/8/8 33/9/9
f 27/114/114 33/9/9 31/113/113
f 31/113/113 33/9/9 37/10/10
f 31/113/113 37/10/10 35/112/112
f 35/112/112 37/10/10 41/11/11
f 35/112/112 41/11/11 39/111/111
f 39/111/111 41/11/11 45/12/12
f 39/111/111 45/12/12 43/110/110
f 43/110/110 45/12/12 49/13/13
f 43/110/110 49/13/13 47/109/109
f 47/109/109 49/13/13 53/14/14
f 47/109/109 53/14/14 51/108/108
f 51/108/108 53/14/14 57/15/15
f 51/108/108 57/15/15 55/107/107
f 55/107/107 57/15/15 61/16/16
f 55/107/107 61/16/16 59/106/106
f 59/106/106 61/16/16 65/17/17
f 59/106/106 65/17/17 63/105/105
f 63/105/105 65/17/17 69/18/18
f 63/105/105 69/18/18 67/104/104
f 67/104/104 69/18/18 73/19/19
f 67/104/104 73/19/19 71/103/103
f 71/103/103 73/19/19 77/20/20
f 71/103/103 77/20/20 75/102/102
f 75/102/102 77/20/20 81/21/21
f 75/102/102 81/21/21 79/101/101
f 79/101/101 81/21/21 85/22/22
f 79/101/101 85/22/22 83/100/100
f 83/100/100 85/22/22 89/23/23
f 83/100/100 89/23/23 87/99/99
f 87/99/99 89/23/23 93/24/24
f 87/99/99 93/24/24 91/98/98
f 91/98/98 93/24/24 97/25/25
f 91/98/98 97/25/25 95/97/97
f 95/97/97 97/25/25 101/26/26
f 95/97/97 101/26/26 99/96/96
f 99/96/96 101/26/26 105/27/27
f 99/96/96 105/27/27 103/95/95
f 103/95/95 105/27/27 109/28/28
f 103/95/95 109/28/28 107/94/94
f 107/94/94 109/28/28 113/29/29
f 107/94/94 113/29/29 111/93/93
f 111/93/93 113/29/29 117/30/30
f 2/123/123 6/124/124 5/182/182
f 5/182/182 6/124/124 9/181/181
f 9/181/181 6/124/124 10/125/125
f 9/181/181 10/125/125 13/180/180
f 13/180/180 10/125/125 14/126/126
f 13/180/180 14/126/126 17/179/179
f 17/179/179 14/126/126 18/127/127
f 17/179/179 18/127/127 21/178/178
f 21/178/178 18/127/127 22/128/128
f 21/178/178 22/128/128 25/177/177
f 25/177/177 22/128/128 26/129/129
f 25/177/177 26/129/129 29/176/176
f 29/176/176 26/129/129 30/130/130
f 29/176/176 30/130/130 33/175/175
f 33/175/175 30/130/130 34/131/131
f 33/175/175 34/131/131 37/174/174
f 37/174/174 34/131/131 38/132/132
f 37/174/174 38/132/132 41/173/173
f 41/173/173 38/132/132 42/133/133
f 41/173/173 42/133/133 45/172/172
f 45/172/172 42/133/133 46/134/134
f 45/172/172 46/134/134 49/171/171
f 49/171/171 46/134/134 50/135/135
f 49/171/171 50/135/135 53/170/170
f 53/170/170 50/135/135 54/136/136
f 53/170/170 54/136/136 57/169/169
f 57/169/169 54/136/136 58/137/137
f 57/169/169 58/137/137 61/168/168
f 61/168/168 58/137/137 62/138/138
f 61/168/168 62/138/138 65/167/167
f 65/167/167 62/138/138 66/139/139
f 65/167/167 66/139/139 69/166/166
f 69/166/166 66/139/139 70/140/140
f 69/166/166 70/140/140 73/165/165
f 73/165/165 70/140/140 74/141/141
f 73/165/165 74/141/141 77/164/164
f 77/164/164 74/141/141 78/142/142
f 77/164/164 78/142/142 81/163/163
f 81/163/163 78/142/142 82/143/143
f 81/163/163 82/143/143 85/162/162
f 85/162/162 82/143/143 86/144/144
f 85/162/162 86/144/144 89/161/161
f 89/161/161 86/144/144 90/145/145
f 89/161/161 90/145/145 93/160/160
f 93/160/160 90/145/145 94/146/146
f 93/160/160 94/146/146 97/159/159
f 97/159/159 94/146/146 98/147/147
f 97/159/159 98/147/147 101/158/158
f 101/158/158 98/147/147 102/148/148
f 101/158/158 102/148/148 105/157/157
f 105/157/157 102/148/148 106/149/149
f 105/157/157 106/149/149 109/156/156
f 109/156/156 106/149/149 110/150/150
f 109/156/156 110/150/150 113/155/155
f 113/155/155 110/150/150 114/151/151
f 113/155/155 114/151/151 117/154/154
f 117/154/154 114/151/151 118/152/152
f 117/154/154 118/152/152 120/153/153
f 1/183/183 3/184/184 4/242/242
f 4/242/242 3/184/184 8/241/241
f 8/241/241 3/184/184 7/185/185
f 8/241/241 7/185/185 12/240/240
f 12/240/240 7/185/185 11/186/186
f 12/240/240 11/186/186 16/239/239
f 16/239/239 11/186/186 15/187/187
f 16/239/239 15/187/187 20/238/238
f 20/238/238 15/187/187 19/188/188
f 20/238/238 19/188/188 24/237/237
f 24/237/237 19/188/188 23/189/189
f 24/237/237 23/189/189 28/236/236
f 28/236/236 23/189/189 27/190/190
f 28/236/236 27/190/190 32/235/235
f 32/235/235 27/190/190 31/191/191
f 32/235/235 31/191/191 36/234/234
f 36/234/234 31/191/191 35/192/192
f 36/234/234 35/192/192 40/233/233
f 40/233/233 35/192/192 39/193/193
f 40/233/233 39/193/193 44/232/232
f 44/232/232 39/193/193 43/194/194
f 44/232/232 43/194/194 48/231/231
f 48/231/231 43/194/194 47/195/195
f 48/231/231 47/195/195 52/230/230
f 52/230/230 47/195/195 51/196/196
f 52/230/230 51/196/196 56/229/229
f 56/229/229 51/196/196 55/197/197
f 56/229/229 55/197/197 60/228/228
f 60/228/228 55/197/197 59/198/198
f 60/228/228 59/198/198 64/227/227
f 64/227/227 59/198/198 63/199/199
f 64/227/227 63/199/199 68/226/226
f 68/226/226 63/199/199 67/200/200
f 68/226/226 67/200/200 72/225/225
f 72/225/225 67/200/200 71/201/201
f 72/225/225 71/201/201 76/224/224
f 76/224/224 71/201/201 75/202/202
f 76/224/224 75/202/202 80/223/223
f 80/223/223 75/202/202 79/203/203
f 80/223/223 79/203/203 84/222/222
f 84/222/222 79/203/203 83/204/204
f 84/222/222 83/204/204 88/221/221
f 88/221/221 83/204/204 87/205/205
f 88/221/221 87/205/205 92/220/220
f 92/220/220 87/205/205 91/206/206
f 92/220/220 91/206/206 96/219/219
f 96/219/219 91/206/206 95/207/207
f 96/219/219 95/207/207 100/218/218
f 100/218/218 95/207/207 99/208/208
f 100/218/218 99/208/208 104/217/217
f 104/217/217 99/208/208 103/209/209
f 104/217/217 103/209/209 108/216/216
f 108/216/216 103/209/209 107/210/210
f 108/216/216 107/210/210 112/215/215
f 112/215/215 107/210/210 111/211/211
f 112/215/215 111/211/211 116/214/214
f 116/214/214 111/211/211 115/212/212
f 116/214/214 115/212/212 119/213/213
# 120 vertices
# 242 texture params
# 242 normals
# 236 facets

# 3 groups
